<svg width="19" height="19" viewBox="0 0 19 19" fill="none" xmlns="http://www.w3.org/2000/svg">
<path d="M18.5997 16.6802C18.8546 16.935 18.9977 17.2807 18.9977 17.6411C18.9977 18.0015 18.8546 18.3471 18.5997 18.602C18.3448 18.8568 17.9992 19 17.6387 19C17.2783 19 16.9326 18.8568 16.6778 18.602L9.5 11.4224L2.31996 18.5997C2.06509 18.8546 1.71943 18.9977 1.359 18.9977C0.99857 18.9977 0.652903 18.8546 0.398042 18.5997C0.14318 18.3449 3.79773e-09 17.9992 0 17.6388C-3.79773e-09 17.2784 0.14318 16.9328 0.398042 16.6779L7.57809 9.50056L0.400302 2.32095C0.145441 2.0661 0.00226112 1.72046 0.00226113 1.36005C0.00226113 0.999641 0.145441 0.653995 0.400302 0.399148C0.655164 0.144302 1.00083 0.00113028 1.36126 0.00113028C1.72169 0.00113028 2.06736 0.144302 2.32222 0.399148L9.5 7.57877L16.68 0.398017C16.9349 0.143171 17.2806 -6.00439e-09 17.641 0C18.0014 6.00439e-09 18.3471 0.143171 18.602 0.398017C18.8568 0.652864 19 0.99851 19 1.35892C19 1.71932 18.8568 2.06497 18.602 2.31982L11.4219 9.50056L18.5997 16.6802Z" fill="white"/>
</svg>
