<svg width="1423" height="519" viewBox="0 0 1423 519" fill="none" xmlns="http://www.w3.org/2000/svg">
<path opacity="0.01" d="M304.521 145.724C274.846 138.684 246.261 129.867 219.777 121.699C216.883 120.806 214.014 119.922 211.172 119.048C182.302 110.171 156.174 102.426 134.1 99.0862C112.019 95.7459 94.1022 96.8327 81.5707 105.509C69.0511 114.176 61.7916 130.502 61.2653 157.933C60.9373 175.038 72.0953 198.48 91.7994 223.948C111.485 249.392 139.636 276.774 173.141 301.73C240.16 351.651 328.508 391.801 413.264 387.417C498.167 383.025 573.824 368.977 625.507 341.113C651.343 327.184 671.168 309.812 683.172 288.488C695.172 267.171 699.37 241.877 693.91 212.064C685.104 163.978 664.632 137.856 636.939 125.103C609.181 112.319 574.029 112.895 535.74 118.545C516.608 121.368 496.721 125.453 476.613 129.751C473.042 130.514 469.464 131.284 465.882 132.055C449.299 135.624 432.633 139.211 416.196 142.228C376.236 149.565 337.537 153.557 304.521 145.724Z" stroke="url(#paint0_linear_135_2675)"/>
<path opacity="0.0204082" d="M301.911 158.461C271.215 154.333 241.126 148.366 213.25 142.838C210.203 142.233 207.183 141.634 204.192 141.044C173.811 135.045 146.394 129.898 124.056 128.685C101.713 127.471 84.5731 130.202 74.6153 139.846C64.6598 149.488 61.7817 166.141 68.3167 193.044C72.394 209.829 89.287 231.74 115.006 254.827C140.704 277.895 175.138 302.07 214.158 323.372C292.215 365.985 388.506 397.042 469.855 384.868C551.364 372.669 621.39 351.884 664.532 319.814C686.098 303.783 700.934 284.942 707.142 262.958C713.349 240.979 710.94 215.829 697.965 187.154C677.037 140.902 650.39 117.243 620.17 107.344C589.885 97.4234 555.835 101.255 520.02 110.346C502.124 114.888 483.816 120.735 465.348 126.812C462.068 127.891 458.784 128.978 455.496 130.065C440.271 135.101 424.968 140.162 409.743 144.645C372.73 155.543 336.074 163.055 301.911 158.461Z" stroke="url(#paint1_linear_135_2675)" stroke-width="1.02041"/>
<path opacity="0.0408163" d="M248.021 179.349C217.092 178.172 186.28 175.138 157.74 172.328C154.62 172.021 151.528 171.717 148.466 171.418C117.364 168.381 89.3753 165.902 67.3372 166.798C45.2968 167.694 29.3496 171.96 22.1433 182.308C14.9289 192.668 16.3916 209.239 29.6505 234.97C37.9295 251.038 60.0009 270.915 90.9426 291.109C121.863 311.289 161.566 331.735 204.993 348.941C291.872 383.364 393.501 404.762 469.505 385.272C545.687 365.735 608.486 338.869 642.242 303.473C675.972 268.105 680.714 224.213 640.771 170.514C608.542 127.185 576.533 106.512 544.597 99.6446C512.614 92.7673 480.486 99.6838 447.97 111.918C431.723 118.031 415.409 125.459 398.995 133.128C396.08 134.49 393.162 135.859 390.241 137.23C376.716 143.578 363.122 149.958 349.454 155.765C316.228 169.882 282.467 180.659 248.021 179.349Z" stroke="url(#paint2_linear_135_2675)" stroke-width="1.04082"/>
<path opacity="0.0612245" d="M306.287 188.911C275.897 190.65 245.149 190.559 216.67 190.475C213.558 190.466 210.473 190.457 207.418 190.451C176.387 190.384 148.54 190.573 127.345 193.507C106.155 196.44 91.7751 202.094 87.4213 212.872C83.0536 223.683 88.7148 239.775 108.201 263.732C120.378 278.703 146.951 296.105 182.212 312.978C217.453 329.842 261.302 346.144 307.942 358.927C401.264 384.503 505.551 395.937 574.446 369.779C643.54 343.546 697.735 311.394 721.509 273.613C745.265 235.861 738.672 192.451 686.058 143.598C643.613 104.187 607.171 86.9364 574.355 83.1996C541.523 79.4609 512.072 89.2177 483.58 104.225C469.345 111.723 455.379 120.515 441.375 129.554C438.888 131.158 436.4 132.771 433.91 134.386C422.378 141.861 410.784 149.377 398.973 156.338C370.264 173.259 340.16 186.974 306.287 188.911Z" stroke="url(#paint3_linear_135_2675)" stroke-width="1.06122"/>
<path opacity="0.0816327" d="M313.938 205.958C284.834 210.502 254.914 213.29 227.208 215.872C224.18 216.154 221.178 216.434 218.207 216.713C188.019 219.55 161.008 222.339 141.166 227.19C121.34 232.037 108.851 238.896 107.374 249.826C105.888 260.819 115.507 276.053 140.578 297.69C156.257 311.221 186.554 325.777 225.144 338.997C263.718 352.212 310.514 364.069 359.121 372.219C407.731 380.37 458.125 384.81 503.902 383.202C549.681 381.593 590.792 373.939 620.905 357.934C681.363 325.8 725.821 289.272 739.281 250.081C752.732 210.916 735.248 169.025 671.592 126.102C620.248 91.482 580.392 77.9963 547.531 77.4077C514.697 76.8196 488.593 89.1048 464.737 106.452C452.817 115.119 441.488 125.029 430.182 135.187C428.175 136.99 426.169 138.8 424.161 140.613C414.858 149.01 405.504 157.453 395.797 165.374C372.205 184.624 346.418 200.886 313.938 205.958Z" stroke="url(#paint4_linear_135_2675)" stroke-width="1.08163"/>
<path opacity="0.102041" d="M325.513 223.726C298.39 230.9 270.027 236.43 243.767 241.55C240.897 242.11 238.052 242.664 235.237 243.216C206.626 248.819 181.106 254.076 163.081 260.677C154.076 263.974 146.995 267.589 142.336 271.72C137.69 275.84 135.422 280.499 136.1 285.93C137.462 296.837 150.706 310.862 180.595 329.707C199.298 341.499 232.467 352.92 273.338 362.254C314.195 371.585 362.693 378.816 412.003 382.249C461.316 385.681 511.412 385.312 555.473 379.455C599.54 373.597 637.495 362.26 662.634 343.796C713.159 306.688 747.016 266.781 750.092 227.165C753.166 187.566 725.491 148.172 652.659 112.087C593.926 82.9872 551.738 73.5059 519.651 76.0051C487.639 78.4985 465.448 92.9429 446.71 112.146C437.345 121.744 428.869 132.502 420.476 143.506C418.986 145.459 417.499 147.42 416.01 149.383C409.115 158.475 402.179 167.619 394.767 176.285C376.756 197.343 355.826 215.708 325.513 223.726Z" stroke="url(#paint5_linear_135_2675)" stroke-width="1.10204"/>
<path opacity="0.122449" d="M341.097 241.83C316.587 251.395 290.453 259.465 266.261 266.936C263.617 267.752 260.996 268.562 258.403 269.365C232.047 277.531 208.62 285.062 192.816 293.206C184.922 297.273 178.993 301.462 175.542 305.92C172.104 310.361 171.086 315.118 173.13 320.373C175.18 325.641 180.31 331.408 189.181 337.823C198.048 344.235 210.626 351.276 227.529 359.101C248.714 368.907 283.85 376.992 325.923 382.311C367.984 387.629 416.927 390.175 465.687 388.925C514.451 387.674 563.002 382.626 604.288 372.77C645.586 362.91 679.51 348.264 699.174 327.865C738.746 286.813 761.425 244.585 754.303 205.514C747.182 166.447 710.25 130.442 630.295 101.905C565.826 78.8947 522.421 73.5505 491.891 79.0012C461.479 84.4311 443.654 100.62 430.373 121.159C423.734 131.428 418.252 142.753 412.91 154.315C411.962 156.366 411.019 158.425 410.075 160.487C405.699 170.036 401.297 179.644 396.31 188.828C384.193 211.141 368.536 231.122 341.097 241.83Z" stroke="url(#paint6_linear_135_2675)" stroke-width="1.12245"/>
<path opacity="0.142857" d="M360.669 259.88C339.323 271.541 316.02 281.89 294.453 291.468C292.095 292.515 289.758 293.552 287.447 294.581C263.951 305.044 243.151 314.607 229.905 324.053C223.29 328.771 218.63 333.411 216.433 338.071C214.247 342.71 214.463 347.449 217.791 352.407C221.127 357.378 227.582 362.551 237.834 368.008C248.081 373.463 262.091 379.187 280.496 385.274C303.571 392.905 339.744 397.543 381.936 398.824C424.117 400.104 472.269 398.026 519.272 392.246C566.281 386.465 612.109 376.985 649.655 363.473C687.222 349.953 716.364 332.448 730.209 310.668C758.109 266.78 769.325 223.317 752.436 185.72C735.544 148.116 690.496 116.288 605.595 95.7975C537.144 79.2772 493.64 78.0945 465.397 86.2884C451.309 90.3754 441.017 96.7958 433.29 104.832C425.549 112.884 420.353 122.589 416.535 133.263C412.718 143.936 410.292 155.536 408.063 167.362C407.667 169.459 407.278 171.564 406.888 173.671C405.082 183.434 403.264 193.261 400.77 202.727C394.71 225.722 384.608 246.802 360.669 259.88Z" stroke="url(#paint7_linear_135_2675)" stroke-width="1.14286"/>
<path opacity="0.163265" d="M384.109 277.486C366.387 290.903 346.431 303.216 327.962 314.61C325.944 315.856 323.942 317.091 321.964 318.314C301.849 330.758 284.128 342.062 273.705 352.545C268.5 357.78 265.183 362.744 264.251 367.489C263.324 372.208 264.733 376.82 269.232 381.369C273.741 385.929 281.328 390.396 292.672 394.789C304.01 399.179 319.066 403.482 338.477 407.73C387.19 418.39 483.628 412.399 571.886 392.301C616.005 382.254 658.031 368.693 690.99 351.955C723.975 335.203 747.732 315.346 755.574 292.754C771.394 247.175 771.151 203.565 745.152 168.312C719.142 133.044 667.295 106.055 579.688 93.8926C509.061 84.0871 466.552 86.9835 441.25 97.6464C428.632 102.964 420.306 110.208 414.881 118.782C409.444 127.375 406.891 137.353 405.92 148.16C404.95 158.967 405.566 170.554 406.431 182.349C406.584 184.44 406.745 186.538 406.906 188.639C407.653 198.373 408.406 208.174 408.409 217.683C408.418 240.783 404.014 262.417 384.109 277.486Z" stroke="url(#paint8_linear_135_2675)" stroke-width="1.16327"/>
<path opacity="0.183673" d="M356.835 300.662C343.094 315.457 326.903 329.378 311.92 342.259C310.282 343.667 308.659 345.063 307.055 346.446C290.744 360.51 276.466 373.231 269.053 384.467C265.35 390.079 263.415 395.241 263.727 399.963C264.038 404.657 266.58 409.039 272.108 413.078C277.648 417.125 286.15 420.797 298.277 424.046C310.396 427.294 326.098 430.11 346.01 432.468C395.976 438.384 487.943 423.548 568.359 395.65C608.558 381.704 645.825 364.509 673.484 345.046C701.17 325.564 719.096 303.906 720.9 281.061C724.542 234.942 713.12 192.245 678.871 160.125C644.606 127.99 587.412 106.365 499.348 102.593C428.352 99.5514 387.881 106.342 366.086 119.141C355.219 125.523 349.011 133.39 345.955 142.285C342.892 151.2 342.975 161.206 344.807 171.882C346.639 182.558 350.208 193.852 354.073 205.328C354.758 207.363 355.453 209.404 356.148 211.448C359.371 220.916 362.615 230.45 365.059 239.768C370.996 262.404 372.281 284.031 356.835 300.662Z" stroke="url(#paint9_linear_135_2675)" stroke-width="1.18367"/>
<path opacity="0.204082" d="M387.218 316.297C377.706 332.067 365.593 347.207 354.385 361.216C353.16 362.748 351.945 364.265 350.746 365.769C338.555 381.06 327.989 394.846 323.695 406.541C321.55 412.381 321.001 417.621 322.52 422.223C324.031 426.798 327.624 430.854 334.015 434.295C340.422 437.744 349.604 440.552 362.192 442.612C374.772 444.67 390.715 445.974 410.621 446.438C460.567 447.603 545.887 424.547 616.655 389.762C652.031 372.373 683.726 352.074 705.527 330.443C727.345 308.794 739.151 285.914 735.021 263.358C726.683 217.83 704.622 177.056 663.163 148.764C621.687 120.46 560.694 104.576 474.368 109.041C404.77 112.641 367.298 123.045 349.473 137.598C340.586 144.855 336.592 153.136 335.918 162.137C335.243 171.159 337.9 180.957 342.423 191.248C346.946 201.539 353.312 212.273 360.011 223.159C361.199 225.089 362.397 227.024 363.597 228.961C369.157 237.939 374.756 246.98 379.522 255.883C391.101 277.508 397.91 298.573 387.218 316.297Z" stroke="url(#paint10_linear_135_2675)" stroke-width="1.20408"/>
<path opacity="0.22449" d="M474.842 324.108C469.692 340.433 461.86 356.381 454.613 371.139C453.821 372.752 453.035 374.351 452.261 375.935C444.392 392.037 437.709 406.519 436.564 418.374C435.993 424.295 436.812 429.492 439.483 433.877C442.14 438.239 446.68 441.88 453.751 444.656C460.843 447.44 470.457 449.341 483.183 450.195C495.901 451.048 511.684 450.853 531.094 449.469C555.419 447.735 586.769 439.26 619.512 426.127C652.245 412.997 686.329 395.227 716.12 374.932C745.915 354.634 771.393 331.825 786.937 308.626C802.492 285.413 808.041 261.901 798.205 240.163C778.367 196.32 746.451 158.411 698.969 134.528C651.478 110.641 588.283 100.719 505.786 113.065C439.265 123.02 405.652 136.669 392.142 152.559C385.406 160.482 383.666 168.965 385.339 177.859C387.016 186.771 392.126 196.134 399.168 205.801C406.21 215.466 415.154 225.396 424.456 235.439C426.105 237.22 427.766 239.005 429.429 240.793C437.135 249.073 444.892 257.409 451.808 265.688C468.607 285.797 480.625 305.777 474.842 324.108Z" stroke="url(#paint11_linear_135_2675)" stroke-width="1.22449"/>
<path opacity="0.244898" d="M510.53 336.633C509.763 353.09 506.299 369.426 503.093 384.544C502.743 386.196 502.396 387.834 502.055 389.456C498.595 405.944 495.864 420.743 497.823 432.463C498.802 438.316 500.944 443.347 504.688 447.417C508.415 451.468 513.776 454.618 521.336 456.681C528.919 458.751 538.717 459.726 551.262 459.391C563.801 459.056 579.041 457.412 597.491 454.27C620.598 450.335 648.779 439.157 677.111 423.285C705.434 407.418 733.866 386.883 757.485 364.271C781.106 341.657 799.895 316.982 808.957 292.838C818.023 268.685 817.33 245.136 802.146 224.724C771.559 183.603 730.797 149.412 678.59 130.397C626.394 111.387 562.605 107.493 485.867 127.172C423.979 143.043 394.959 159.494 385.986 176.28C377.052 192.993 387.938 210.177 406.604 227.82C415.935 236.641 427.177 245.543 438.791 254.52C440.851 256.112 442.923 257.707 444.998 259.304C454.609 266.702 464.282 274.148 473.124 281.615C494.605 299.754 511.39 318.18 510.53 336.633Z" stroke="url(#paint12_linear_135_2675)" stroke-width="1.2449"/>
<path opacity="0.265306" d="M548.119 347.307C551.643 363.48 552.522 379.783 553.334 394.871C553.423 396.521 553.511 398.156 553.602 399.774C554.524 416.225 555.713 430.962 560.656 442.26C563.124 447.903 566.513 452.646 571.222 456.304C575.914 459.949 581.951 462.541 589.806 463.865C605.597 466.526 628.767 464.063 662.938 454.517C684.291 448.552 708.695 435.036 732.04 416.904C755.373 398.78 777.605 376.079 794.634 351.785C811.664 327.49 823.477 301.621 826.001 277.163C828.524 252.701 821.751 229.7 801.708 211.089C761.377 173.641 712.973 143.912 657.421 130.096C601.903 116.288 539.094 118.338 469.846 144.63C413.983 165.84 390.149 184.589 385.808 201.821C381.479 219.008 396.512 234.854 419.205 250.422C430.545 258.201 443.756 265.883 457.342 273.601C459.752 274.971 462.174 276.341 464.6 277.714C475.835 284.071 487.139 290.467 497.644 296.96C523.166 312.735 544.174 329.2 548.119 347.307Z" stroke="url(#paint13_linear_135_2675)" stroke-width="1.26531"/>
<path opacity="0.285714" d="M587.068 355.994C594.684 371.485 599.769 387.346 604.475 402.028C604.99 403.632 605.5 405.223 606.008 406.797C611.173 422.798 616.154 437.108 623.886 447.711C631.612 458.306 641.986 465.074 657.849 466.218C673.827 467.371 695.621 462.85 726.26 450.388C745.383 442.61 765.521 427.172 783.444 407.303C801.356 387.448 817.014 363.215 827.215 337.901C837.416 312.586 842.153 286.208 838.248 262.057C834.343 237.905 821.802 216.015 797.501 199.629C748.654 166.692 693.977 142.044 636.506 133.622C579.09 125.207 518.764 132.97 458.492 165.005C409.853 190.857 391.64 211.356 391.906 228.588C392.172 245.808 410.895 259.95 436.962 273.105C449.983 279.676 464.793 285.98 479.971 292.283C482.664 293.402 485.369 294.52 488.078 295.64C500.622 300.827 513.24 306.045 525.109 311.43C553.948 324.516 578.554 338.674 587.068 355.994Z" stroke="url(#paint14_linear_135_2675)" stroke-width="1.28571"/>
<path opacity="0.306122" d="M626.813 362.613C638.223 377.053 647.274 392.085 655.653 406.001C656.569 407.522 657.477 409.03 658.379 410.522C667.544 425.683 676.096 439.216 686.358 448.876C696.618 458.535 708.477 464.22 724.194 463.886C739.97 463.55 759.902 457.149 786.363 442.176C802.852 432.846 818.36 415.939 830.581 394.887C842.791 373.852 851.681 348.744 854.998 323.077C861.637 271.712 845.947 218.261 790.218 190.65C734.269 162.929 674.809 143.841 616.858 140.872C558.972 137.906 502.524 151.016 452.437 187.803C412.001 217.502 399.682 239.172 404.413 255.973C409.15 272.793 431.017 284.915 459.733 295.389C474.076 300.62 490.083 305.426 506.442 310.195C509.345 311.042 512.26 311.887 515.178 312.734C528.693 316.654 542.284 320.596 555.193 324.772C586.562 334.918 614.072 346.49 626.813 362.613Z" stroke="url(#paint15_linear_135_2675)" stroke-width="1.30612"/>
<path opacity="0.326531" d="M666.78 367.137C681.597 380.189 694.28 394.037 706.024 406.858C707.308 408.26 708.58 409.649 709.843 411.023C722.67 424.987 734.486 437.423 746.957 445.921C759.432 454.421 772.447 458.901 787.64 457.131C802.846 455.36 820.494 447.299 842.259 430.274C855.796 419.685 866.446 401.786 872.836 380.113C879.22 358.465 881.327 333.141 877.883 307.778C870.991 257.03 841.896 206.254 780.611 184.38C719.117 162.432 656.45 149.233 599.432 151.641C570.934 152.845 543.867 157.946 519.063 167.788C494.264 177.629 471.679 192.228 452.164 212.473C420.667 245.147 414.35 267.403 423.297 283.365C432.268 299.37 456.662 309.214 487.254 316.814C502.534 320.61 519.317 323.837 536.428 326.997C539.465 327.558 542.513 328.116 545.564 328.676C559.695 331.266 573.904 333.871 587.511 336.765C620.579 343.8 650.249 352.574 666.78 367.137Z" stroke="url(#paint16_linear_135_2675)" stroke-width="1.32653"/>
<path opacity="0.346939" d="M706.407 369.596C724.169 380.972 740.067 393.32 754.788 404.753C756.397 406.003 757.992 407.242 759.574 408.467C775.642 420.915 790.337 431.969 804.649 439.12C818.969 446.275 832.787 449.461 847.097 446.336C861.39 443.216 876.404 433.747 893.096 415.162C903.455 403.628 909.154 385.221 909.74 363.491C910.325 341.793 905.809 316.896 895.894 292.466C876.057 243.593 834.658 196.701 769.474 180.969C704.094 165.19 639.835 158.055 585.104 165.634C557.747 169.422 532.803 176.882 511.292 188.752C489.791 200.617 471.676 216.913 457.998 238.431C435.918 273.162 435.552 295.427 448.367 310.176C461.232 324.981 487.483 332.354 519.151 336.966C534.968 339.269 552.097 340.88 569.524 342.394C572.617 342.662 575.72 342.928 578.827 343.194C593.213 344.426 607.678 345.665 621.633 347.241C655.551 351.073 686.603 356.913 706.407 369.596Z" stroke="url(#paint17_linear_135_2675)" stroke-width="1.34694"/>
<path opacity="0.367347" d="M745.155 370.084C765.338 379.543 783.961 390.121 801.208 399.917C803.093 400.988 804.961 402.049 806.813 403.099C825.629 413.759 842.754 423.189 858.501 428.848C874.256 434.51 888.509 436.35 901.605 431.985C914.67 427.63 926.782 417.03 938.171 397.397C945.225 385.237 946.008 366.795 940.962 345.554C935.924 324.351 925.109 300.494 909.17 277.585C877.286 231.759 824.975 189.832 757.609 180.479C690.056 171.101 625.821 170.047 574.638 182.469C549.054 188.677 526.769 198.244 508.962 211.789C491.167 225.324 477.808 242.861 470.098 265.074C457.651 300.933 463.038 322.652 479.288 335.853C495.61 349.113 523.013 353.89 554.952 355.478C570.905 356.27 587.951 356.267 605.26 356.142C608.333 356.119 611.415 356.093 614.5 356.067C628.785 355.946 643.145 355.825 657.1 356.08C691.017 356.7 722.661 359.54 745.155 370.084Z" stroke="url(#paint18_linear_135_2675)" stroke-width="1.36735"/>
<path opacity="0.387755" d="M782.538 368.742C804.568 376.1 825.373 384.692 844.64 392.649C846.746 393.519 848.833 394.38 850.901 395.232C871.914 403.887 890.969 411.498 907.715 415.562C924.471 419.628 938.784 420.107 950.375 414.646C961.933 409.2 970.955 397.763 976.954 377.592C980.665 365.113 976.686 347.085 966.317 326.851C955.969 306.656 939.327 284.406 917.955 263.551C875.203 221.834 813.619 185.795 745.803 182.89C677.801 179.977 615.165 184.872 568.67 201.694C545.429 210.104 526.258 221.48 512.462 236.317C498.676 251.142 490.227 269.452 488.462 291.797C487.037 309.848 489.036 324.029 493.772 335.109C498.505 346.18 505.987 354.192 515.597 359.889C534.858 371.307 562.695 373.437 594.114 372.04C612.612 371.218 632.251 369.181 652.041 367.13C665.88 365.695 679.794 364.252 693.443 363.212C726.532 360.689 757.985 360.541 782.538 368.742Z" stroke="url(#paint19_linear_135_2675)" stroke-width="1.38776"/>
<path opacity="0.408163" d="M818.129 365.753C841.404 370.883 863.806 377.329 884.55 383.298C886.817 383.95 889.064 384.597 891.29 385.235C913.909 391.722 934.355 397.373 951.65 399.782C968.956 402.192 982.962 401.334 992.804 394.948C1002.62 388.579 1008.45 376.606 1009.1 356.397C1009.5 343.894 1001.01 326.698 985.761 307.947C970.538 289.232 948.678 269.097 922.585 250.76C870.386 214.077 801.37 184.672 734.804 188.116C668.044 191.569 608.499 202.131 567.683 222.818C547.28 233.158 531.59 246.012 522.003 261.739C512.422 277.455 508.914 296.075 512.93 318.008C519.415 353.419 535.212 372.537 556.724 381.828C578.34 391.164 605.899 390.666 636.041 386.398C653.787 383.885 672.327 380.085 691.012 376.256C704.079 373.578 717.216 370.885 730.202 368.608C761.678 363.089 792.182 360.033 818.129 365.753Z" stroke="url(#paint20_linear_135_2675)" stroke-width="1.40816"/>
<path opacity="0.428571" d="M851.564 361.321C875.464 364.156 898.852 368.354 920.508 372.241C922.875 372.666 925.221 373.087 927.544 373.502C951.153 377.72 972.432 381.323 989.823 382.063C1007.22 382.802 1020.57 380.666 1028.48 373.547C1036.37 366.439 1038.97 354.235 1034.44 334.474C1031.64 322.234 1018.99 306.259 999.403 289.413C979.848 272.597 953.493 255.016 923.49 239.58C863.467 208.699 789.001 186.48 725.31 196.012C661.407 205.576 606.33 221.391 572.011 245.323C554.857 257.284 542.913 271.257 537.624 287.466C532.337 303.666 533.684 322.138 543.189 343.144C558.534 377.057 578.762 394.213 601.995 401.259C625.331 408.338 651.929 405.298 680.087 398.343C694.15 394.869 708.564 390.43 723.115 385.818C725.698 384.999 728.285 384.175 730.876 383.349C742.873 379.528 754.935 375.686 766.925 372.271C796.064 363.972 824.902 358.158 851.564 361.321Z" stroke="url(#paint21_linear_135_2675)" stroke-width="1.42857"/>
<path opacity="0.44898" d="M882.534 355.67C906.442 356.204 930.199 358.113 952.191 359.879C954.595 360.073 956.978 360.264 959.338 360.452C983.312 362.359 1004.86 363.884 1021.9 362.984C1038.95 362.083 1051.32 358.763 1057.16 351.116C1063 343.464 1062.43 331.326 1053 312.479C1047.15 300.787 1030.79 286.388 1007.51 271.807C984.262 257.247 954.226 242.579 921.201 230.341C855.122 205.856 777.277 191.172 717.968 206.382C658.425 221.651 609.042 242.184 581.85 268.68C568.26 281.922 560.227 296.641 559.216 312.925C558.206 329.205 564.213 347.087 578.786 366.68C602.315 398.312 626.323 413.143 650.636 417.838C675.034 422.55 700.028 417.12 725.567 407.723C738.32 403.031 751.169 397.364 764.111 391.516C766.408 390.478 768.708 389.434 771.011 388.389C781.676 383.548 792.401 378.68 803.165 374.236C829.32 363.435 855.836 355.074 882.534 355.67Z" stroke="url(#paint22_linear_135_2675)" stroke-width="1.44898"/>
<path opacity="0.469388" d="M910.793 349.052C934.107 347.336 957.622 346.973 979.385 346.638C981.764 346.602 984.123 346.565 986.457 346.527C1010.18 346.144 1031.44 345.615 1047.71 343.146C1063.99 340.677 1075.08 336.301 1078.79 328.336C1082.51 320.34 1078.89 308.555 1064.96 291.057C1056.3 280.184 1036.77 267.672 1010.5 255.643C984.272 243.628 951.437 232.146 916.328 223.313C846.059 205.634 766.935 198.626 713.362 218.966C659.529 239.405 616.889 264.015 597.257 292.353C577.654 320.649 580.964 352.694 619.147 388.147C649.994 416.789 677.052 429.001 701.799 431.301C726.593 433.605 749.405 425.997 771.769 414.458C782.936 408.697 793.951 401.978 805.013 395.07C806.976 393.844 808.941 392.612 810.908 391.379C820.019 385.666 829.184 379.919 838.493 374.582C861.11 361.613 884.721 350.971 910.793 349.052Z" stroke="url(#paint23_linear_135_2675)" stroke-width="1.46939"/>
<path opacity="0.489796" d="M936.163 341.743C958.312 337.884 980.999 335.327 1001.99 332.961C1004.28 332.702 1006.56 332.446 1008.81 332.19C1031.69 329.593 1052.12 327.086 1067.25 323.16C1082.35 319.236 1091.92 313.959 1093.5 305.886C1095.08 297.745 1088.59 286.585 1070.66 270.825C1059.5 261.017 1037.39 250.644 1008.92 241.382C980.471 232.128 945.767 224.014 909.533 218.696C836.989 208.048 758.654 208.649 711.984 233.455C665.034 258.41 629.986 286.372 618.143 315.806C606.317 345.2 617.601 376.138 663.584 407.143C700.72 432.183 730.041 441.557 754.587 441.479C779.126 441.401 799.248 431.876 817.977 418.545C827.33 411.888 836.295 404.311 845.262 396.543C846.853 395.164 848.443 393.78 850.037 392.394C857.416 385.973 864.842 379.511 872.51 373.435C891.138 358.675 911.344 346.066 936.163 341.743Z" stroke="url(#paint24_linear_135_2675)" stroke-width="1.4898"/>
<path opacity="0.510204" d="M958.548 334.03C979.008 328.189 1000.32 323.566 1020.02 319.291C1022.18 318.823 1024.31 318.36 1026.43 317.9C1047.91 313.22 1067.03 308.863 1080.65 303.624C1087.45 301.008 1092.81 298.197 1096.4 295.051C1099.98 291.92 1101.84 288.432 1101.58 284.416C1101.06 276.327 1091.95 266.043 1070.62 252.349C1057.33 243.818 1033.29 235.773 1003.41 229.413C973.541 223.057 937.914 218.401 901.517 216.614C865.115 214.827 827.981 215.911 795.089 221.02C762.193 226.129 733.625 235.249 714.232 249.492C675.131 278.211 648.305 308.736 644.28 338.521C640.259 368.275 658.976 397.398 711.328 423.337C753.594 444.278 784.355 450.674 808.088 448.295C831.752 445.923 848.767 434.785 863.506 420.046C870.867 412.685 877.624 404.462 884.338 396.047C885.528 394.555 886.718 393.056 887.909 391.556C893.427 384.603 898.983 377.604 904.871 370.957C919.17 354.817 935.566 340.591 958.548 334.03Z" stroke="url(#paint25_linear_135_2675)" stroke-width="1.5102"/>
<path opacity="0.530612" d="M977.93 326.212C996.233 318.593 1015.66 312.085 1033.63 306.068C1035.59 305.41 1037.54 304.758 1039.46 304.111C1059.05 297.53 1076.41 291.493 1088.23 285.116C1094.13 281.933 1098.57 278.706 1101.22 275.331C1103.87 271.977 1104.78 268.425 1103.52 264.535C1102.25 260.627 1098.78 256.368 1092.58 251.656C1086.38 246.947 1077.5 241.811 1065.48 236.14C1050.46 229.054 1025.19 223.458 994.695 220.055C964.222 216.654 928.613 215.451 892.985 217.12C857.351 218.79 821.741 223.329 791.252 231.393C760.751 239.461 735.495 251.023 720.393 266.69C689.876 298.347 671.676 330.607 675.302 360.015C678.925 389.406 704.367 416.076 761.54 436.482C807.685 452.952 839.053 456.313 861.397 451.765C883.615 447.243 897.201 434.829 907.707 419.095C912.957 411.233 917.408 402.585 921.772 393.747C922.546 392.181 923.316 390.608 924.089 389.033C927.666 381.734 931.27 374.381 935.284 367.343C945.031 350.254 957.312 334.793 977.93 326.212Z" stroke="url(#paint26_linear_135_2675)" stroke-width="1.53061"/>
<path opacity="0.55102" d="M994.366 318.584C1010.11 309.435 1027.23 301.264 1043.05 293.712C1044.78 292.887 1046.49 292.068 1048.19 291.257C1065.44 283 1080.65 275.491 1090.43 268.174C1095.31 264.523 1098.76 260.98 1100.45 257.473C1102.13 253.995 1102.13 250.464 1099.93 246.788C1097.72 243.093 1093.28 239.258 1086.1 235.237C1078.92 231.219 1069.04 227.035 1056.01 222.624C1039.7 217.109 1013.88 214.012 983.577 213.543C953.294 213.074 918.61 215.232 884.636 220.194C850.655 225.156 817.427 232.918 790.039 243.637C762.63 254.365 741.219 267.994 730.635 284.644C709.199 318.364 699.796 351.516 710.725 379.855C721.653 408.193 752.964 431.85 813.34 446.422C862.061 458.18 893.211 458.528 913.64 451.997C933.903 445.52 943.841 432.184 949.993 415.878C953.069 407.723 955.178 398.875 957.156 389.842C957.506 388.242 957.852 386.635 958.199 385.026C959.807 377.569 961.428 370.053 963.524 362.805C968.613 345.211 976.575 328.92 994.366 318.584Z" stroke="url(#paint27_linear_135_2675)" stroke-width="1.55102"/>
<path opacity="0.571429" d="M1008 311.44C1020.87 301.039 1035.3 291.466 1048.64 282.621C1050.1 281.653 1051.55 280.694 1052.98 279.744C1067.52 270.075 1080.28 261.332 1087.85 253.288C1091.62 249.275 1094.03 245.516 1094.76 241.967C1095.5 238.452 1094.62 235.023 1091.56 231.639C1088.49 228.238 1083.23 224.908 1075.28 221.65C1067.34 218.395 1056.75 215.231 1043.05 212.14C1025.92 208.275 1000.22 207.659 970.88 210.025C941.553 212.39 908.649 217.729 877.141 225.739C845.625 233.751 815.549 244.424 791.857 257.439C768.14 270.468 750.984 285.752 745.017 302.944C732.907 337.831 732.248 371.043 749.969 397.675C767.696 424.315 803.899 444.495 865.837 453.094C915.813 460.032 945.954 457.469 964.002 449.188C972.984 445.068 978.973 439.531 982.952 433.006C986.946 426.459 988.947 418.867 989.844 410.627C990.742 402.388 990.531 393.561 990.147 384.559C990.079 382.965 990.005 381.365 989.931 379.763C989.59 372.333 989.246 364.841 989.429 357.567C989.873 339.913 993.421 323.22 1008 311.44Z" stroke="url(#paint28_linear_135_2675)" stroke-width="1.57143"/>
<path opacity="0.591837" d="M1019.05 305.047C1028.8 293.697 1040.27 283.012 1050.87 273.139C1052.03 272.059 1053.18 270.989 1054.32 269.929C1065.87 259.139 1075.93 249.424 1081.17 240.876C1083.78 236.611 1085.14 232.73 1084.94 229.213C1084.75 225.732 1083.04 222.474 1079.24 219.457C1075.41 216.423 1069.5 213.659 1061.01 211.216C1052.52 208.775 1041.51 206.669 1027.53 204.922C1010.03 202.736 985.111 204.518 957.438 209.549C929.78 214.578 899.432 222.842 871.11 233.584C842.782 244.328 816.52 257.536 797.009 272.438C777.473 287.358 764.85 303.86 763.483 321.173C760.705 356.343 768.53 388.814 792.385 413.161C816.253 437.52 856.279 453.865 918.16 456.516C968.09 458.655 996.48 453.356 1011.76 443.601C1019.36 438.748 1023.71 432.793 1025.88 426.068C1028.06 419.317 1028.05 411.73 1026.82 403.606C1025.58 395.483 1023.13 386.888 1020.47 378.135C1019.99 376.586 1019.52 375.031 1019.04 373.473C1016.81 366.251 1014.57 358.967 1012.9 351.847C1008.82 334.568 1007.98 317.919 1019.05 305.047Z" stroke="url(#paint29_linear_135_2675)" stroke-width="1.59184"/>
<path opacity="0.612245" d="M1027.81 299.668C1034.3 287.69 1042.61 276.201 1050.29 265.587C1051.13 264.426 1051.97 263.275 1052.79 262.135C1061.15 250.538 1068.36 240.127 1071.21 231.3C1072.64 226.896 1072.94 222.979 1071.86 219.558C1070.78 216.17 1068.29 213.15 1063.86 210.56C1059.41 207.955 1053.01 205.804 1044.21 204.203C1035.42 202.603 1024.28 201.562 1010.36 201.147C992.965 200.627 969.423 204.662 944.062 212.124C918.714 219.582 891.605 230.446 867.081 243.541C842.552 256.64 820.645 271.953 805.672 288.295C790.683 304.655 782.749 321.928 785.868 338.963C792.204 373.556 808.061 404.533 837.27 426.096C866.488 447.666 909.213 459.927 969.48 456.81C1018.11 454.294 1044.09 446.505 1056.29 435.583C1062.36 430.15 1065.03 423.938 1065.4 417.168C1065.77 410.373 1063.82 402.964 1060.54 395.147C1057.27 387.33 1052.71 379.165 1047.9 370.867C1047.05 369.398 1046.19 367.924 1045.33 366.448C1041.34 359.603 1037.32 352.7 1033.88 345.906C1025.53 329.416 1020.46 313.249 1027.81 299.668Z" stroke="url(#paint30_linear_135_2675)" stroke-width="1.61224"/>
<path opacity="0.632653" d="M1034.67 295.484C1037.83 283.203 1042.87 271.231 1047.54 260.171C1048.05 258.961 1048.55 257.762 1049.05 256.575C1054.11 244.495 1058.37 233.674 1058.85 224.793C1059.08 220.363 1058.37 216.495 1056.43 213.234C1054.51 210.002 1051.32 207.279 1046.4 205.163C1041.45 203.034 1034.75 201.523 1025.87 200.768C1017 200.014 1006.01 200.019 992.509 200.888C975.643 201.974 954.027 208.064 931.533 217.667C909.054 227.264 885.754 240.345 865.518 255.367C845.277 270.392 828.131 287.336 817.925 304.651C807.712 321.978 804.507 339.573 811.914 355.942C826.934 389.137 850.196 417.921 883.878 436.286C917.553 454.648 961.823 462.692 1019.03 454.131C1065.2 447.221 1088.17 437.246 1097.1 425.488C1105.95 413.832 1101.09 400.253 1090.76 385.59C1085.6 378.258 1079.09 370.705 1072.33 363.05C1071.13 361.694 1069.92 360.334 1068.71 358.972C1063.11 352.66 1057.46 346.295 1052.4 339.983C1040.12 324.662 1031.09 309.384 1034.67 295.484Z" stroke="url(#paint31_linear_135_2675)" stroke-width="1.63265"/>
<path opacity="0.653061" d="M1040.01 292.629C1039.87 280.369 1041.63 268.239 1043.25 257.03C1043.43 255.804 1043.61 254.59 1043.78 253.387C1045.53 241.15 1046.83 230.206 1044.98 221.494C1044.06 217.147 1042.37 213.419 1039.63 210.389C1036.91 207.38 1033.11 205.011 1027.84 203.399C1017.18 200.142 1000.51 199.98 974.917 204.141C958.987 206.731 939.768 214.627 920.6 226.036C901.447 237.436 882.405 252.308 866.813 268.792C851.219 285.28 839.099 303.359 833.755 321.168C828.41 338.984 829.867 356.454 841.268 371.782C864.342 402.802 894.218 428.766 931.417 443.61C968.584 458.442 1013.25 462.247 1066.08 448.701C1108.73 437.762 1128.23 425.957 1133.78 413.701C1139.28 401.519 1131.07 388.683 1117.3 375.301C1110.43 368.616 1102.21 361.841 1093.71 354.992C1092.2 353.779 1090.69 352.563 1089.17 351.345C1082.14 345.701 1075.05 340.013 1068.55 334.322C1052.76 320.508 1040.16 306.471 1040.01 292.629Z" stroke="url(#paint32_linear_135_2675)" stroke-width="1.65306"/>
<path opacity="0.673469" d="M1044.23 291.202C1040.92 279.276 1039.46 267.305 1038.11 256.24C1037.96 255.03 1037.81 253.831 1037.66 252.643C1036.17 240.57 1034.57 229.785 1030.53 221.455C1026.49 213.143 1020.12 207.465 1009.21 205.299C998.126 203.098 982.07 204.442 958.515 210.81C943.885 214.765 927.448 224.18 911.958 237.024C896.484 249.856 882.016 266.059 871.289 283.523C860.56 300.988 853.588 319.691 853.073 337.521C852.557 355.354 858.499 372.263 873.505 386.196C903.815 414.339 939.37 436.941 979.08 448.036C1018.73 459.113 1062.69 458.767 1109.99 440.809C1148.21 426.299 1163.88 413.056 1166.03 400.639C1168.17 388.256 1156.89 376.459 1140.12 364.654C1131.75 358.761 1122.06 352.902 1112.1 347.001C1110.33 345.955 1108.56 344.908 1106.78 343.859C1098.54 338.998 1090.24 334.103 1082.5 329.151C1063.71 317.129 1047.97 304.631 1044.23 291.202Z" stroke="url(#paint33_linear_135_2675)" stroke-width="1.67347"/>
<path opacity="0.693878" d="M1047.77 291.263C1041.47 279.965 1036.94 268.455 1032.75 257.812C1032.3 256.648 1031.84 255.495 1031.39 254.354C1026.8 242.747 1022.45 232.392 1016.37 224.643C1010.29 216.899 1002.62 211.914 991.496 210.786C980.272 209.648 965.195 212.392 944.182 220.701C931.165 225.849 917.802 236.465 906.23 250.352C894.673 264.22 884.96 281.279 879.179 299.23C867.603 335.175 871.849 374.482 908.136 398.95C944.7 423.605 984.886 442.398 1026.07 449.613C1067.18 456.814 1109.39 452.504 1150.22 430.804C1183.23 413.259 1194.84 398.993 1193.68 386.742C1192.51 374.479 1178.52 363.991 1159.26 354.009C1149.65 349.027 1138.78 344.199 1127.64 339.358C1125.66 338.5 1123.68 337.641 1121.69 336.781C1112.48 332.796 1103.22 328.784 1094.47 324.667C1073.23 314.67 1054.86 303.955 1047.77 291.263Z" stroke="url(#paint34_linear_135_2675)" stroke-width="1.69388"/>
<path opacity="0.714286" d="M995.815 299.327C986.788 288.924 979.42 278.154 972.605 268.193C971.86 267.104 971.121 266.024 970.388 264.956C962.934 254.098 956.03 244.424 948.137 237.436C940.24 230.446 931.49 226.267 920.425 226.172C909.325 226.077 895.548 230.085 877.487 240.03C866.337 246.17 856.241 257.649 848.71 272.175C841.193 286.674 836.283 304.11 835.395 322.061C833.617 357.994 847.955 395.82 889.396 416.353C931.103 437.017 974.785 451.665 1016.41 454.969C1057.95 458.265 1097.46 450.271 1131.08 425.574C1158.29 405.591 1165.75 390.727 1161.43 378.947C1157.09 367.117 1140.82 358.169 1119.63 350.2C1109.06 346.224 1097.31 342.511 1085.31 338.812C1083.18 338.155 1081.04 337.5 1078.9 336.843C1068.98 333.801 1059 330.74 1049.49 327.529C1026.41 319.732 1005.94 310.991 995.815 299.327Z" stroke="url(#paint35_linear_135_2675)" stroke-width="1.71429"/>
<path opacity="0.734694" d="M999.238 302.398C987.818 293.124 977.902 283.344 968.729 274.296C967.726 273.307 966.732 272.327 965.746 271.358C955.724 261.5 946.535 252.733 937.086 246.661C927.631 240.583 918.058 237.3 907.315 238.207C896.59 239.113 884.382 244.225 869.585 255.468C860.488 262.38 853.749 274.376 850.271 289.137C846.802 303.862 846.609 321.205 850.432 338.691C858.083 373.683 881.778 409.102 927.173 425.304C972.815 441.595 1018.81 451.877 1059.86 451.334C1080.37 451.063 1099.6 448.09 1116.94 441.839C1134.26 435.593 1149.74 426.053 1162.73 412.576C1183.73 390.792 1187.04 375.748 1179.81 364.719C1172.53 353.617 1154.46 346.391 1131.92 340.568C1120.68 337.662 1108.37 335.117 1095.82 332.61C1093.59 332.165 1091.36 331.721 1089.12 331.277C1078.76 329.22 1068.33 327.15 1058.33 324.892C1034.02 319.408 1012.02 312.781 999.238 302.398Z" stroke="url(#paint36_linear_135_2675)" stroke-width="1.73469"/>
<path opacity="0.755102" d="M1003.22 306.903C989.783 298.954 977.669 290.38 966.46 282.447C965.235 281.58 964.021 280.72 962.817 279.87C950.58 271.23 939.423 263.566 928.715 258.534C917.996 253.498 907.87 251.171 897.703 253.024C887.585 254.868 877.16 260.905 865.827 273.092C858.895 280.547 855.501 292.72 855.98 307.326C856.457 321.885 860.775 338.689 869.011 355.275C885.488 388.458 917.575 420.636 965.655 432.24C1013.97 443.899 1061.06 449.71 1100.57 445.48C1120.32 443.366 1138.12 438.75 1153.21 431.142C1168.29 423.544 1180.72 412.935 1189.74 398.752C1197.04 387.273 1200.5 377.833 1200.91 370.022C1201.33 362.224 1198.72 356.006 1193.77 350.97C1183.84 340.862 1164.48 335.49 1141.21 331.883C1127.5 329.759 1112.57 328.261 1097.51 326.751C1086.97 325.694 1076.36 324.63 1066.07 323.341C1041.18 320.223 1018.24 315.792 1003.22 306.903Z" stroke="url(#paint37_linear_135_2675)" stroke-width="1.7551"/>
<path opacity="0.77551" d="M1008.12 312.744C993.091 306.276 979.175 299.084 966.297 292.428C964.889 291.701 963.494 290.98 962.111 290.267C948.058 283.021 935.297 276.619 923.647 272.723C911.985 268.822 901.584 267.485 892.226 270.203C882.929 272.902 874.443 279.672 866.666 292.449C864.311 296.318 863.078 301.26 862.979 307.031C862.879 312.795 863.911 319.329 866.021 326.342C870.242 340.366 878.754 356.218 890.996 371.508C915.485 402.096 954.803 430.313 1004.27 437.18C1053.95 444.078 1100.96 445.431 1138.04 437.76C1175.11 430.091 1202.01 413.479 1212.04 384.576C1216.12 372.834 1217.02 363.416 1215.41 355.848C1213.8 348.291 1209.67 342.519 1203.59 338.094C1191.37 329.213 1171.27 325.771 1147.85 324.391C1134.06 323.579 1119.25 323.484 1104.31 323.388C1093.85 323.32 1083.33 323.252 1073.06 322.938C1048.21 322.178 1024.92 319.973 1008.12 312.744Z" stroke="url(#paint38_linear_135_2675)" stroke-width="1.77551"/>
<path opacity="0.795918" d="M1014.27 319.751C998.089 314.875 982.799 309.198 968.649 303.945C967.102 303.37 965.569 302.801 964.05 302.238C948.613 296.522 934.641 291.503 922.385 288.802C910.115 286.097 899.72 285.755 891.375 289.232C883.09 292.685 876.64 299.986 872.41 313.015C871.134 316.947 871.208 321.816 872.591 327.39C873.972 332.958 876.642 339.169 880.479 345.746C888.152 358.899 900.44 373.43 916.189 387.08C947.694 414.384 992.922 438.052 1042.48 440.175C1092.26 442.307 1138.02 439.329 1171.88 428.539C1205.74 417.75 1227.43 399.259 1229.7 370.48C1230.63 358.78 1229.08 349.617 1225.59 342.468C1222.1 335.328 1216.64 330.133 1209.63 326.414C1195.55 318.95 1175.24 317.458 1152.25 318.261C1138.72 318.734 1124.39 319.993 1109.93 321.262C1099.81 322.15 1089.63 323.043 1079.63 323.676C1055.42 325.207 1032.35 325.201 1014.27 319.751Z" stroke="url(#paint39_linear_135_2675)" stroke-width="1.79592"/>
<path opacity="0.816327" d="M1021.92 327.77C1005.04 324.551 988.828 320.477 973.823 316.708C972.182 316.296 970.556 315.888 968.946 315.484C952.58 311.387 937.809 307.828 925.288 306.348C912.751 304.866 902.635 305.492 895.471 309.607C888.357 313.693 883.982 321.323 883.21 334.286C882.977 338.198 884.288 342.889 887.041 348.141C889.79 353.386 893.949 359.133 899.327 365.126C910.084 377.112 925.647 390.003 944.33 401.725C981.704 425.175 1031.4 443.852 1079.8 441.348C1128.42 438.833 1171.87 431.756 1201.83 418.237C1231.78 404.721 1248.03 384.895 1242.9 356.915C1240.82 345.54 1236.99 336.84 1231.8 330.264C1226.62 323.697 1220.03 319.19 1212.32 316.25C1196.83 310.346 1176.84 310.77 1154.85 313.656C1141.9 315.355 1128.37 317.886 1114.73 320.439C1105.18 322.226 1095.57 324.023 1086.07 325.553C1063.07 329.254 1040.78 331.369 1021.92 327.77Z" stroke="url(#paint40_linear_135_2675)" stroke-width="1.81633"/>
<path opacity="0.836735" d="M1086.49 330.145C1069.38 328.603 1052.7 326.176 1037.27 323.931C1035.58 323.685 1033.91 323.442 1032.25 323.202C1015.42 320.766 1000.27 318.703 987.815 318.436C975.348 318.168 965.77 319.708 959.911 324.324C954.089 328.912 951.777 336.674 954.301 349.269C955.837 356.933 964.198 366.958 977.658 377.566C991.064 388.131 1009.34 399.121 1030.32 408.695C1072.31 427.847 1124.97 441.246 1171.03 434.353C1217.33 427.424 1257.47 416.576 1282.97 400.771C1295.72 392.873 1304.76 383.761 1309.13 373.324C1313.48 362.903 1313.18 351.12 1307.16 337.804C1302.28 327.016 1296.39 318.969 1289.71 313.1C1283.04 307.241 1275.55 303.51 1267.38 301.393C1250.97 297.141 1231.81 299.396 1211.3 304.216C1199.23 307.054 1186.81 310.747 1174.29 314.471C1165.52 317.079 1156.7 319.703 1147.9 322.061C1126.64 327.761 1105.63 331.871 1086.49 330.145Z" stroke="url(#paint41_linear_135_2675)" stroke-width="1.83673"/>
<path opacity="0.857143" d="M1097.69 339.68C1080.8 339.79 1064.1 339.007 1048.66 338.284C1046.97 338.204 1045.3 338.126 1043.64 338.05C1026.8 337.272 1011.69 336.698 999.626 337.602C987.552 338.508 978.747 340.881 974.274 345.853C969.817 350.806 969.512 358.513 975.103 370.453C978.518 377.744 989.125 386.654 1004.75 395.625C1020.32 404.566 1040.68 413.458 1063.31 420.73C1108.58 435.28 1162.66 443.27 1205.31 432.334C1248.22 421.33 1284.2 407.126 1304.83 389.517C1315.14 380.718 1321.59 371.093 1323.19 360.619C1324.79 350.157 1321.56 338.802 1312.41 326.496C1297.6 306.589 1281.62 297.594 1264.92 295.055C1248.08 292.495 1230.2 296.446 1211.64 303.008C1202.38 306.281 1192.99 310.187 1183.52 314.215C1181.84 314.93 1180.16 315.649 1178.47 316.368C1170.67 319.702 1162.81 323.056 1154.96 326.137C1135.87 333.62 1116.61 339.557 1097.69 339.68Z" stroke="url(#paint42_linear_135_2675)" stroke-width="1.85714"/>
<path opacity="0.877551" d="M1110.86 349.701C1094.63 351.395 1078.35 352.211 1063.3 352.966C1061.66 353.048 1060.02 353.13 1058.41 353.212C1042 354.046 1027.32 354.913 1015.95 356.917C1004.57 358.922 996.743 362.024 993.689 367.204C990.632 372.389 992.236 379.863 1000.6 390.884C1005.72 397.637 1018.18 405.254 1035.45 412.439C1052.66 419.604 1074.47 426.268 1098.05 431.155C1145.25 440.937 1199.25 443.544 1237.53 429.008C1276.11 414.361 1307.21 397.286 1322.7 378.377C1330.44 368.931 1334.26 359.046 1333.21 348.787C1332.16 338.534 1326.23 327.862 1314.35 316.827C1295.13 298.976 1277.47 291.798 1260.8 290.921C1244.01 290.038 1227.82 295.509 1211.58 303.582C1203.47 307.609 1195.41 312.256 1187.29 317.034C1185.85 317.881 1184.41 318.732 1182.96 319.585C1176.27 323.535 1169.54 327.511 1162.73 331.224C1146.21 340.239 1129.1 347.796 1110.86 349.701Z" stroke="url(#paint43_linear_135_2675)" stroke-width="1.87755"/>
<path opacity="0.897959" d="M1126.08 360.008C1110.89 363.181 1095.44 365.509 1081.16 367.659C1079.6 367.895 1078.06 368.128 1076.52 368.359C1060.95 370.717 1047.08 372.939 1036.67 375.942C1026.26 378.945 1019.57 382.652 1017.93 387.895C1016.27 393.18 1019.65 400.257 1030.41 410.129C1037.03 416.195 1050.93 422.382 1069.28 427.687C1087.59 432.98 1110.2 437.353 1134.06 439.842C1181.84 444.826 1234.3 442.226 1267.43 424.614C1300.88 406.835 1326.53 387.429 1336.75 367.736C1346.94 348.1 1341.81 328.134 1313.54 309.071C1290.64 293.626 1271.87 288.362 1255.65 289.091C1239.37 289.822 1225.21 296.603 1211.6 305.925C1204.81 310.573 1198.21 315.819 1191.58 321.198C1190.41 322.152 1189.23 323.11 1188.05 324.07C1182.6 328.516 1177.1 332.994 1171.47 337.224C1157.81 347.492 1143.2 356.433 1126.08 360.008Z" stroke="url(#paint44_linear_135_2675)" stroke-width="1.89796"/>
<path opacity="0.918367" d="M1143.34 370.395C1129.54 374.904 1115.29 378.62 1102.14 382.05C1100.7 382.425 1099.28 382.797 1097.86 383.166C1083.51 386.922 1070.78 390.379 1061.56 394.258C1052.35 398.13 1046.92 402.301 1046.63 407.471C1046.34 412.73 1051.32 419.263 1064.08 427.796C1071.94 433.053 1086.81 437.721 1105.71 441.109C1124.58 444.49 1147.33 446.574 1170.81 446.718C1217.87 447.007 1267.44 439.513 1294.8 419.415C1322.49 399.077 1342.3 377.921 1347.26 357.952C1352.21 338.039 1342.42 319.208 1310.59 303.435C1284.81 290.663 1265.5 287.352 1250.14 289.592C1234.78 291.831 1222.92 299.681 1212.17 309.966C1206.81 315.094 1201.77 320.784 1196.74 326.611C1195.84 327.643 1194.95 328.68 1194.06 329.718C1189.92 334.532 1185.74 339.384 1181.38 344.009C1170.8 355.229 1158.94 365.294 1143.34 370.395Z" stroke="url(#paint45_linear_135_2675)" stroke-width="1.91837"/>
<path opacity="0.938776" d="M1162.59 380.657C1150.5 386.329 1137.78 391.276 1126.04 395.84C1124.76 396.339 1123.49 396.834 1122.23 397.324C1109.41 402.32 1098.11 406.862 1090.27 411.474C1082.45 416.068 1078.36 420.553 1079.34 425.53C1080.34 430.642 1086.71 436.502 1101.03 443.557C1109.86 447.911 1125.25 451.02 1144.15 452.509C1163.03 453.995 1185.3 453.856 1207.79 451.772C1230.29 449.687 1252.96 445.661 1272.65 439.395C1292.35 433.126 1308.98 424.648 1319.54 413.688C1341.02 391.411 1354.74 369.103 1354.59 349.348C1354.45 329.638 1340.48 312.326 1306.13 300.064C1278.32 290.14 1259.02 288.765 1244.88 292.385C1230.81 295.987 1221.45 304.649 1213.71 315.596C1209.84 321.057 1206.42 327.031 1203.04 333.145C1202.44 334.227 1201.84 335.314 1201.24 336.403C1198.46 341.452 1195.65 346.546 1192.61 351.437C1185.24 363.298 1176.34 374.21 1162.59 380.657Z" stroke="url(#paint46_linear_135_2675)" stroke-width="1.93878"/>
<path opacity="0.959184" d="M1183.75 390.591C1173.6 397.228 1162.68 403.222 1152.61 408.747C1151.51 409.352 1150.42 409.951 1149.34 410.545C1138.34 416.594 1128.69 422.049 1122.36 427.24C1119.21 429.827 1116.96 432.286 1115.76 434.663C1114.57 437.012 1114.38 439.343 1115.47 441.729C1117.68 446.583 1125.21 451.664 1140.61 457.151C1150.12 460.542 1165.58 462.102 1183.98 461.761C1202.36 461.42 1223.56 459.185 1244.5 455.046C1265.45 450.906 1286.08 444.871 1303.31 436.95C1320.55 429.024 1334.28 419.268 1341.62 407.713C1356.61 384.142 1364.2 361.282 1359.2 342.194C1354.22 323.137 1336.64 307.673 1300.83 299.029C1271.85 292.036 1253.08 292.525 1240.49 297.364C1228.02 302.155 1221.25 311.365 1216.57 322.67C1214.24 328.312 1212.45 334.412 1210.72 340.652C1210.41 341.756 1210.11 342.865 1209.81 343.975C1208.4 349.127 1206.97 354.33 1205.28 359.358C1201.16 371.545 1195.34 383.009 1183.75 390.591Z" stroke="url(#paint47_linear_135_2675)" stroke-width="1.95918"/>
<path opacity="0.979592" d="M1206.64 400.002C1198.63 407.387 1189.72 414.22 1181.51 420.517C1180.61 421.206 1179.72 421.889 1178.84 422.565C1169.87 429.459 1162.06 435.64 1157.33 441.249C1154.98 444.043 1153.46 446.614 1152.92 448.997C1152.38 451.345 1152.76 453.599 1154.38 455.803C1156.02 458.031 1158.94 460.215 1163.49 462.332C1168.04 464.445 1174.16 466.468 1182.13 468.4C1202.04 473.223 1240.69 471.101 1277.51 460.409C1314.37 449.704 1348.88 430.563 1361.12 401.699C1371.64 376.885 1373.18 354.081 1363.2 336.243C1353.21 318.406 1331.59 305.36 1295.34 300.327C1266.03 296.257 1248.28 298.49 1237.51 304.354C1226.87 310.14 1222.74 319.646 1221.09 331.015C1220.27 336.694 1220.07 342.767 1219.98 348.976C1219.96 350.073 1219.95 351.176 1219.93 352.28C1219.87 357.405 1219.8 362.585 1219.43 367.621C1218.54 379.823 1215.83 391.529 1206.64 400.002Z" stroke="url(#paint48_linear_135_2675)" stroke-width="1.97959"/>
<path d="M1231.06 408.705C1225.3 416.609 1218.55 424.06 1212.33 430.924C1211.65 431.675 1210.98 432.419 1210.31 433.157C1203.52 440.671 1197.65 447.38 1194.58 453.247C1193.05 456.168 1192.26 458.79 1192.34 461.134C1192.41 463.442 1193.33 465.579 1195.42 467.559C1197.53 469.563 1200.84 471.409 1205.69 473.04C1210.53 474.669 1216.84 476.064 1224.9 477.2C1245.09 480.047 1277.09 478.608 1307.2 466.981C1337.28 455.37 1365.4 433.634 1378.12 395.91C1383.26 372.298 1379.03 350.1 1364.75 333.42C1350.45 316.718 1325.95 305.412 1290.28 303.884C1261.43 302.649 1245.15 306.455 1236.4 313.128C1227.78 319.704 1226.23 329.274 1227.51 340.439C1228.15 346.016 1229.49 351.919 1230.95 357.948C1231.21 359.013 1231.48 360.083 1231.74 361.155C1232.96 366.13 1234.2 371.16 1235.11 376.078C1237.31 387.994 1237.68 399.618 1231.06 408.705Z" stroke="url(#paint49_linear_135_2675)" stroke-width="2"/>
<defs>
<linearGradient id="paint0_linear_135_2675" x1="414.298" y1="387.856" x2="398.474" y2="81.9661" gradientUnits="userSpaceOnUse">
<stop stop-color="#5356E0"/>
<stop offset="1" stop-color="#6868AE"/>
</linearGradient>
<linearGradient id="paint1_linear_135_2675" x1="470.969" y1="385.19" x2="425.312" y2="80.1104" gradientUnits="userSpaceOnUse">
<stop stop-color="#5356E0"/>
<stop offset="1" stop-color="#6868AE"/>
</linearGradient>
<linearGradient id="paint2_linear_135_2675" x1="470.657" y1="385.464" x2="392.283" y2="79.8472" gradientUnits="userSpaceOnUse">
<stop stop-color="#5356E0"/>
<stop offset="1" stop-color="#6868AE"/>
</linearGradient>
<linearGradient id="paint3_linear_135_2675" x1="575.597" y1="369.841" x2="459.324" y2="63.5983" gradientUnits="userSpaceOnUse">
<stop stop-color="#5356E0"/>
<stop offset="1" stop-color="#6868AE"/>
</linearGradient>
<linearGradient id="paint4_linear_135_2675" x1="622.019" y1="357.874" x2="460.166" y2="53.3607" gradientUnits="userSpaceOnUse">
<stop stop-color="#5356E0"/>
<stop offset="1" stop-color="#6868AE"/>
</linearGradient>
<linearGradient id="paint5_linear_135_2675" x1="663.684" y1="343.625" x2="446.326" y2="47.6844" gradientUnits="userSpaceOnUse">
<stop stop-color="#5356E0"/>
<stop offset="1" stop-color="#6868AE"/>
</linearGradient>
<linearGradient id="paint6_linear_135_2675" x1="700.138" y1="327.594" x2="416.921" y2="54.5827" gradientUnits="userSpaceOnUse">
<stop stop-color="#5356E0"/>
<stop offset="1" stop-color="#6868AE"/>
</linearGradient>
<linearGradient id="paint7_linear_135_2675" x1="731.072" y1="310.312" x2="376.538" y2="84.9332" gradientUnits="userSpaceOnUse">
<stop stop-color="#5356E0"/>
<stop offset="1" stop-color="#6868AE"/>
</linearGradient>
<linearGradient id="paint8_linear_135_2675" x1="756.324" y1="292.326" x2="339.756" y2="147.737" gradientUnits="userSpaceOnUse">
<stop stop-color="#5356E0"/>
<stop offset="1" stop-color="#6868AE"/>
</linearGradient>
<linearGradient id="paint9_linear_135_2675" x1="721.532" y1="280.572" x2="275.186" y2="245.32" gradientUnits="userSpaceOnUse">
<stop stop-color="#5356E0"/>
<stop offset="1" stop-color="#6868AE"/>
</linearGradient>
<linearGradient id="paint10_linear_135_2675" x1="735.531" y1="262.819" x2="306.935" y2="341.309" gradientUnits="userSpaceOnUse">
<stop stop-color="#5356E0"/>
<stop offset="1" stop-color="#6868AE"/>
</linearGradient>
<linearGradient id="paint11_linear_135_2675" x1="798.594" y1="239.583" x2="426.864" y2="407.784" gradientUnits="userSpaceOnUse">
<stop stop-color="#5356E0"/>
<stop offset="1" stop-color="#6868AE"/>
</linearGradient>
<linearGradient id="paint12_linear_135_2675" x1="802.415" y1="224.11" x2="503.227" y2="446.654" gradientUnits="userSpaceOnUse">
<stop stop-color="#5356E0"/>
<stop offset="1" stop-color="#6868AE"/>
</linearGradient>
<linearGradient id="paint13_linear_135_2675" x1="801.858" y1="210.445" x2="572.01" y2="457.987" gradientUnits="userSpaceOnUse">
<stop stop-color="#5356E0"/>
<stop offset="1" stop-color="#6868AE"/>
</linearGradient>
<linearGradient id="paint14_linear_135_2675" x1="797.534" y1="198.956" x2="625.99" y2="453.365" gradientUnits="userSpaceOnUse">
<stop stop-color="#5356E0"/>
<stop offset="1" stop-color="#6868AE"/>
</linearGradient>
<linearGradient id="paint15_linear_135_2675" x1="790.131" y1="189.948" x2="665.216" y2="442.068" gradientUnits="userSpaceOnUse">
<stop stop-color="#5356E0"/>
<stop offset="1" stop-color="#6868AE"/>
</linearGradient>
<linearGradient id="paint16_linear_135_2675" x1="780.395" y1="183.65" x2="692.535" y2="429.812" gradientUnits="userSpaceOnUse">
<stop stop-color="#5356E0"/>
<stop offset="1" stop-color="#6868AE"/>
</linearGradient>
<linearGradient id="paint17_linear_135_2675" x1="769.113" y1="180.217" x2="711.317" y2="419.693" gradientUnits="userSpaceOnUse">
<stop stop-color="#5356E0"/>
<stop offset="1" stop-color="#6868AE"/>
</linearGradient>
<linearGradient id="paint18_linear_135_2675" x1="757.084" y1="179.723" x2="724.664" y2="413.236" gradientUnits="userSpaceOnUse">
<stop stop-color="#5356E0"/>
<stop offset="1" stop-color="#6868AE"/>
</linearGradient>
<linearGradient id="paint19_linear_135_2675" x1="745.101" y1="182.166" x2="735.295" y2="411.072" gradientUnits="userSpaceOnUse">
<stop stop-color="#5356E0"/>
<stop offset="1" stop-color="#6868AE"/>
</linearGradient>
<linearGradient id="paint20_linear_135_2675" x1="733.936" y1="187.468" x2="745.618" y2="413.307" gradientUnits="userSpaceOnUse">
<stop stop-color="#5356E0"/>
<stop offset="1" stop-color="#6868AE"/>
</linearGradient>
<linearGradient id="paint21_linear_135_2675" x1="724.309" y1="195.478" x2="757.859" y2="419.66" gradientUnits="userSpaceOnUse">
<stop stop-color="#5356E0"/>
<stop offset="1" stop-color="#6868AE"/>
</linearGradient>
<linearGradient id="paint22_linear_135_2675" x1="716.881" y1="205.981" x2="774.194" y2="429.47" gradientUnits="userSpaceOnUse">
<stop stop-color="#5356E0"/>
<stop offset="1" stop-color="#6868AE"/>
</linearGradient>
<linearGradient id="paint23_linear_135_2675" x1="712.233" y1="218.703" x2="796.835" y2="441.529" gradientUnits="userSpaceOnUse">
<stop stop-color="#5356E0"/>
<stop offset="1" stop-color="#6868AE"/>
</linearGradient>
<linearGradient id="paint24_linear_135_2675" x1="710.853" y1="233.324" x2="828.01" y2="453.745" gradientUnits="userSpaceOnUse">
<stop stop-color="#5356E0"/>
<stop offset="1" stop-color="#6868AE"/>
</linearGradient>
<linearGradient id="paint25_linear_135_2675" x1="713.129" y1="249.481" x2="869.623" y2="462.553" gradientUnits="userSpaceOnUse">
<stop stop-color="#5356E0"/>
<stop offset="1" stop-color="#6868AE"/>
</linearGradient>
<linearGradient id="paint26_linear_135_2675" x1="719.339" y1="266.788" x2="922.124" y2="462.266" gradientUnits="userSpaceOnUse">
<stop stop-color="#5356E0"/>
<stop offset="1" stop-color="#6868AE"/>
</linearGradient>
<linearGradient id="paint27_linear_135_2675" x1="729.647" y1="284.84" x2="982.045" y2="445.291" gradientUnits="userSpaceOnUse">
<stop stop-color="#5356E0"/>
<stop offset="1" stop-color="#6868AE"/>
</linearGradient>
<linearGradient id="paint28_linear_135_2675" x1="744.106" y1="303.226" x2="1038.91" y2="405.552" gradientUnits="userSpaceOnUse">
<stop stop-color="#5356E0"/>
<stop offset="1" stop-color="#6868AE"/>
</linearGradient>
<linearGradient id="paint29_linear_135_2675" x1="762.656" y1="321.532" x2="1076.6" y2="346.328" gradientUnits="userSpaceOnUse">
<stop stop-color="#5356E0"/>
<stop offset="1" stop-color="#6868AE"/>
</linearGradient>
<linearGradient id="paint30_linear_135_2675" x1="785.131" y1="339.391" x2="1084.68" y2="284.534" gradientUnits="userSpaceOnUse">
<stop stop-color="#5356E0"/>
<stop offset="1" stop-color="#6868AE"/>
</linearGradient>
<linearGradient id="paint31_linear_135_2675" x1="811.269" y1="356.435" x2="1069.36" y2="239.652" gradientUnits="userSpaceOnUse">
<stop stop-color="#5356E0"/>
<stop offset="1" stop-color="#6868AE"/>
</linearGradient>
<linearGradient id="paint32_linear_135_2675" x1="840.717" y1="372.335" x2="1047.02" y2="218.878" gradientUnits="userSpaceOnUse">
<stop stop-color="#5356E0"/>
<stop offset="1" stop-color="#6868AE"/>
</linearGradient>
<linearGradient id="paint33_linear_135_2675" x1="873.051" y1="386.811" x2="1030.42" y2="217.328" gradientUnits="userSpaceOnUse">
<stop stop-color="#5356E0"/>
<stop offset="1" stop-color="#6868AE"/>
</linearGradient>
<linearGradient id="paint34_linear_135_2675" x1="907.784" y1="399.629" x2="1024.37" y2="226.729" gradientUnits="userSpaceOnUse">
<stop stop-color="#5356E0"/>
<stop offset="1" stop-color="#6868AE"/>
</linearGradient>
<linearGradient id="paint35_linear_135_2675" x1="889.158" y1="417.099" x2="973.4" y2="247.07" gradientUnits="userSpaceOnUse">
<stop stop-color="#5356E0"/>
<stop offset="1" stop-color="#6868AE"/>
</linearGradient>
<linearGradient id="paint36_linear_135_2675" x1="927.068" y1="426.121" x2="985.847" y2="261.437" gradientUnits="userSpaceOnUse">
<stop stop-color="#5356E0"/>
<stop offset="1" stop-color="#6868AE"/>
</linearGradient>
<linearGradient id="paint37_linear_135_2675" x1="965.715" y1="433.121" x2="1004.06" y2="274.244" gradientUnits="userSpaceOnUse">
<stop stop-color="#5356E0"/>
<stop offset="1" stop-color="#6868AE"/>
</linearGradient>
<linearGradient id="paint38_linear_135_2675" x1="1004.53" y1="438.103" x2="1025.85" y2="284.527" gradientUnits="userSpaceOnUse">
<stop stop-color="#5356E0"/>
<stop offset="1" stop-color="#6868AE"/>
</linearGradient>
<linearGradient id="paint39_linear_135_2675" x1="1042.96" y1="441.094" x2="1049.35" y2="291.912" gradientUnits="userSpaceOnUse">
<stop stop-color="#5356E0"/>
<stop offset="1" stop-color="#6868AE"/>
</linearGradient>
<linearGradient id="paint40_linear_135_2675" x1="1080.51" y1="442.206" x2="1072.96" y2="296.417" gradientUnits="userSpaceOnUse">
<stop stop-color="#5356E0"/>
<stop offset="1" stop-color="#6868AE"/>
</linearGradient>
<linearGradient id="paint41_linear_135_2675" x1="1171.92" y1="435.1" x2="1150.47" y2="291.814" gradientUnits="userSpaceOnUse">
<stop stop-color="#5356E0"/>
<stop offset="1" stop-color="#6868AE"/>
</linearGradient>
<linearGradient id="paint42_linear_135_2675" x1="1206.33" y1="432.944" x2="1170.08" y2="291.583" gradientUnits="userSpaceOnUse">
<stop stop-color="#5356E0"/>
<stop offset="1" stop-color="#6868AE"/>
</linearGradient>
<linearGradient id="paint43_linear_135_2675" x1="1238.64" y1="429.472" x2="1185.71" y2="290.064" gradientUnits="userSpaceOnUse">
<stop stop-color="#5356E0"/>
<stop offset="1" stop-color="#6868AE"/>
</linearGradient>
<linearGradient id="paint44_linear_135_2675" x1="1268.58" y1="424.938" x2="1196.11" y2="288.608" gradientUnits="userSpaceOnUse">
<stop stop-color="#5356E0"/>
<stop offset="1" stop-color="#6868AE"/>
</linearGradient>
<linearGradient id="paint45_linear_135_2675" x1="1295.96" y1="419.608" x2="1200.33" y2="289.404" gradientUnits="userSpaceOnUse">
<stop stop-color="#5356E0"/>
<stop offset="1" stop-color="#6868AE"/>
</linearGradient>
<linearGradient id="paint46_linear_135_2675" x1="1320.69" y1="413.762" x2="1198.33" y2="295.817" gradientUnits="userSpaceOnUse">
<stop stop-color="#5356E0"/>
<stop offset="1" stop-color="#6868AE"/>
</linearGradient>
<linearGradient id="paint47_linear_135_2675" x1="1342.74" y1="407.678" x2="1192.47" y2="312.155" gradientUnits="userSpaceOnUse">
<stop stop-color="#5356E0"/>
<stop offset="1" stop-color="#6868AE"/>
</linearGradient>
<linearGradient id="paint48_linear_135_2675" x1="1362.47" y1="401.709" x2="1189.13" y2="341.543" gradientUnits="userSpaceOnUse">
<stop stop-color="#5356E0"/>
<stop offset="1" stop-color="#6868AE"/>
</linearGradient>
<linearGradient id="paint49_linear_135_2675" x1="1379.97" y1="396.072" x2="1197.55" y2="381.664" gradientUnits="userSpaceOnUse">
<stop stop-color="#5356E0"/>
<stop offset="1" stop-color="#6868AE"/>
</linearGradient>
</defs>
</svg>
