<svg width="1436" height="518" viewBox="0 0 1436 518" fill="none" xmlns="http://www.w3.org/2000/svg">
<g opacity="0.5">
<path opacity="0.01" d="M332.922 145.725C303.601 138.684 275.359 129.868 249.192 121.699C246.333 120.807 243.499 119.922 240.69 119.048C212.166 110.172 186.352 102.426 164.544 99.0868C142.728 95.7466 125.03 96.8337 112.651 105.508C100.283 114.174 93.11 130.499 92.5901 157.932C92.2658 175.039 103.291 198.482 122.759 223.95C142.209 249.394 170.022 276.776 203.125 301.732C269.341 351.652 356.628 391.801 440.364 387.417C524.249 383.025 598.998 368.977 650.059 341.114C675.585 327.185 695.172 309.814 707.032 288.491C718.888 267.173 723.036 241.879 717.642 212.065C708.941 163.976 688.712 137.855 661.354 125.103C633.931 112.32 599.204 112.896 561.374 118.545C542.472 121.368 522.823 125.453 502.956 129.751C499.428 130.514 495.893 131.284 492.355 132.055C475.97 135.624 459.504 139.211 443.263 142.229C403.781 149.565 365.544 153.558 332.922 145.725Z" stroke="url(#paint0_linear_523_590)"/>
<path opacity="0.0204082" d="M330.343 158.462C300.014 154.334 270.284 148.367 242.742 142.839C239.733 142.234 236.75 141.636 233.794 141.045C203.777 135.046 176.69 129.899 154.621 128.686C132.546 127.473 115.615 130.203 105.779 139.845C95.9439 149.486 93.0996 166.139 99.5565 193.043C103.585 209.829 120.277 231.74 145.687 254.827C171.077 277.895 205.098 302.07 243.651 323.372C320.772 365.985 415.906 397.04 496.276 384.867C576.808 372.668 645.993 351.883 688.617 319.814C709.924 303.784 724.581 284.944 730.715 262.96C736.847 240.981 734.468 215.831 721.648 187.155C700.97 140.902 674.642 117.243 644.786 107.345C614.868 97.4254 581.228 101.256 545.842 110.347C528.162 114.889 510.074 120.736 491.826 126.813C488.586 127.892 485.341 128.979 482.093 130.066C467.05 135.102 451.931 140.163 436.887 144.646C400.318 155.544 364.1 163.057 330.343 158.462Z" stroke="url(#paint1_linear_523_590)" stroke-width="1.02041"/>
<path opacity="0.0408163" d="M277.101 179.351C246.541 178.174 216.099 175.141 187.9 172.331C184.818 172.024 181.763 171.719 178.738 171.42C148.008 168.383 120.356 165.904 98.5827 166.8C76.8076 167.696 61.0548 171.962 53.9363 182.308C46.8091 192.667 48.2537 209.237 61.3539 234.969C69.5338 251.036 91.3408 270.914 121.911 291.108C152.462 311.288 191.688 331.733 234.594 348.939C320.433 383.362 420.841 404.759 495.93 385.27C571.199 365.733 633.244 338.868 666.594 303.473C699.918 268.106 704.604 224.215 665.14 170.516C633.296 127.186 601.671 106.513 570.121 99.6468C538.524 92.7702 506.784 99.6857 474.657 111.92C458.606 118.032 442.487 125.46 426.27 133.129C423.39 134.491 420.508 135.86 417.622 137.231C404.259 143.579 390.827 149.959 377.322 155.767C344.494 169.884 311.136 180.662 277.101 179.351Z" stroke="url(#paint2_linear_523_590)" stroke-width="1.04082"/>
<path opacity="0.0612245" d="M334.669 188.915C304.643 190.653 274.262 190.562 246.125 190.479C243.05 190.47 240.002 190.46 236.984 190.454C206.325 190.387 178.813 190.576 157.873 193.51C136.937 196.443 122.733 202.097 118.432 212.872C114.117 223.682 119.71 239.773 138.962 263.73C150.993 278.701 177.247 296.103 212.085 312.976C246.904 329.84 290.228 346.142 336.308 358.924C428.512 384.501 531.546 395.933 599.612 369.776C667.877 343.543 721.422 311.392 744.91 273.612C768.38 235.862 761.867 192.453 709.885 143.6C667.948 104.189 631.944 86.9392 599.523 83.2027C567.087 79.4643 537.991 89.2201 509.842 104.227C495.777 111.725 481.979 120.516 468.142 129.556C465.685 131.16 463.227 132.773 460.767 134.388C449.373 141.863 437.918 149.379 426.249 156.34C397.883 173.261 368.139 186.977 334.669 188.915Z" stroke="url(#paint3_linear_523_590)" stroke-width="1.06122"/>
<path opacity="0.0816327" d="M342.231 205.961C313.475 210.506 283.913 213.293 256.539 215.875C253.547 216.157 250.582 216.437 247.646 216.716C217.82 219.553 191.133 222.342 171.53 227.193C151.942 232.04 139.605 238.898 138.146 249.827C136.678 260.818 146.181 276.051 170.951 297.688C186.441 311.219 216.374 325.774 254.502 338.994C292.613 352.208 338.848 364.066 386.872 372.216C434.898 380.367 484.688 384.806 529.916 383.198C575.146 381.59 615.763 373.936 645.513 357.931C705.246 325.797 749.171 289.27 762.469 250.08C775.758 210.916 758.485 169.026 695.592 126.105C644.864 91.4845 605.487 77.9998 573.023 77.4112C540.585 76.8231 514.795 89.1072 491.225 106.454C479.448 115.121 468.255 125.031 457.084 135.189C455.101 136.992 453.119 138.803 451.134 140.616C441.944 149.012 432.702 157.456 423.111 165.377C399.802 184.627 374.323 200.889 342.231 205.961Z" stroke="url(#paint4_linear_523_590)" stroke-width="1.08163"/>
<path opacity="0.102041" d="M353.669 223.729C326.871 230.903 298.848 236.433 272.903 241.553C270.067 242.113 267.256 242.668 264.474 243.219C236.205 248.823 210.992 254.079 193.183 260.68C184.287 263.977 177.291 267.591 172.688 271.722C168.098 275.842 165.858 280.501 166.528 285.931C167.874 296.836 180.957 310.86 210.488 329.705C228.965 341.496 261.735 352.918 302.117 362.251C342.484 371.582 390.4 378.813 439.118 382.246C487.84 385.678 537.334 385.309 580.866 379.452C624.405 373.594 661.904 362.257 686.741 343.794C736.66 306.686 770.111 266.779 773.15 227.164C776.188 187.567 748.845 148.174 676.888 112.09C618.858 82.9899 577.178 73.5096 545.479 76.0086C513.853 78.5018 491.928 92.9453 473.415 112.149C464.162 121.746 455.788 132.504 447.495 143.508C446.024 145.461 444.554 147.422 443.083 149.385C436.271 158.476 429.418 167.621 422.095 176.287C404.299 197.346 383.619 215.711 353.669 223.729Z" stroke="url(#paint5_linear_523_590)" stroke-width="1.10204"/>
<path opacity="0.122449" d="M369.068 241.832C344.851 251.397 319.03 259.467 295.129 266.938C292.516 267.755 289.926 268.564 287.364 269.367C261.324 277.533 238.178 285.064 222.564 293.208C214.764 297.275 208.907 301.464 205.497 305.922C202.1 310.363 201.095 315.12 203.114 320.374C205.139 325.641 210.207 331.407 218.971 337.822C227.731 344.234 240.158 351.275 256.858 359.099C277.788 368.905 312.502 376.99 354.07 382.309C395.626 387.626 443.981 390.172 492.157 388.922C540.336 387.671 588.304 382.624 629.094 372.767C669.897 362.907 703.413 348.262 722.842 327.863C761.94 286.811 784.348 244.583 777.311 205.512C770.276 166.447 733.787 130.444 654.793 101.907C591.097 78.897 548.214 73.5536 518.054 79.0038C488.007 84.4332 470.396 100.622 457.275 121.161C450.714 131.431 445.298 142.755 440.02 154.317C439.084 156.369 438.152 158.427 437.219 160.489C432.896 170.038 428.547 179.646 423.619 188.83C411.648 211.143 396.178 231.124 369.068 241.832Z" stroke="url(#paint6_linear_523_590)" stroke-width="1.12245"/>
<path opacity="0.142857" d="M388.407 259.881C367.317 271.542 344.293 281.891 322.984 291.468C320.654 292.515 318.346 293.553 316.062 294.582C292.848 305.045 272.297 314.608 259.21 324.054C252.674 328.771 248.069 333.412 245.899 338.073C243.738 342.713 243.952 347.452 247.239 352.409C250.535 357.379 256.912 362.551 267.04 368.008C277.164 373.463 291.005 379.187 309.189 385.273C331.986 392.903 367.724 397.542 409.41 398.822C451.085 400.102 498.659 398.025 545.098 392.244C591.543 386.464 636.821 376.983 673.916 363.472C711.032 349.953 739.825 332.447 753.505 310.667C781.071 266.778 792.152 223.315 775.466 185.718C758.777 148.116 714.271 116.289 630.389 95.7989C562.76 79.2787 519.78 78.0967 491.878 86.2897C477.961 90.3762 467.792 96.7962 460.157 104.833C452.509 112.885 447.375 122.591 443.603 133.265C439.831 143.938 437.434 155.539 435.231 167.364C434.84 169.462 434.456 171.567 434.071 173.674C432.286 183.437 430.49 193.264 428.026 202.729C422.039 225.724 412.058 246.803 388.407 259.881Z" stroke="url(#paint7_linear_523_590)" stroke-width="1.14286"/>
<path opacity="0.163265" d="M411.567 277.485C394.057 290.902 374.34 303.215 356.094 314.609C354.099 315.855 352.121 317.09 350.166 318.314C330.293 330.757 312.784 342.061 302.486 352.544C297.343 357.779 294.066 362.744 293.144 367.491C292.227 372.211 293.621 376.824 298.064 381.371C302.518 385.93 310.013 390.397 321.221 394.789C332.422 399.179 347.297 403.482 366.475 407.729C414.602 418.389 509.881 412.399 597.081 392.301C640.671 382.254 682.192 368.693 714.755 351.956C747.343 335.205 770.817 315.348 778.566 292.754C794.197 247.172 793.956 203.562 768.269 168.309C742.572 133.043 691.349 106.056 604.794 93.8932C535.014 84.0878 493.018 86.9846 468.022 97.6462C455.557 102.963 447.33 110.206 441.969 118.782C436.598 127.376 434.074 137.355 433.115 148.162C432.157 158.97 432.766 170.557 433.62 182.351C433.771 184.443 433.93 186.541 434.09 188.642C434.828 198.376 435.571 208.176 435.575 217.685C435.583 240.785 431.232 262.417 411.567 277.485Z" stroke="url(#paint8_linear_523_590)" stroke-width="1.16327"/>
<path opacity="0.183673" d="M384.62 300.66C371.043 315.455 355.046 329.376 340.243 342.257C338.625 343.665 337.021 345.061 335.436 346.444C319.321 360.508 305.214 373.229 297.89 384.465C294.232 390.076 292.318 395.24 292.627 399.964C292.934 404.661 295.447 409.043 300.907 413.08C306.38 417.126 314.778 420.798 326.759 424.047C338.732 427.294 354.245 430.11 373.917 432.468C423.282 438.383 514.145 423.549 593.596 395.651C633.313 381.705 670.132 364.511 697.459 345.048C724.811 325.567 742.524 303.909 744.307 281.061C747.906 234.939 736.619 192.242 702.782 160.122C668.929 127.989 612.424 106.365 525.417 102.593C455.272 99.5515 415.289 106.342 393.759 119.139C383.024 125.52 376.889 133.387 373.87 142.284C370.843 151.2 370.925 161.208 372.735 171.884C374.545 182.561 378.072 193.854 381.89 205.331C382.567 207.366 383.254 209.406 383.941 211.45C387.125 220.918 390.33 230.452 392.745 239.77C398.61 262.405 399.88 284.03 384.62 300.66Z" stroke="url(#paint9_linear_523_590)" stroke-width="1.18367"/>
<path opacity="0.204082" d="M414.638 316.295C405.24 332.064 393.272 347.204 382.198 361.214C380.988 362.745 379.788 364.263 378.603 365.767C366.558 381.057 356.119 394.843 351.876 406.538C349.757 412.379 349.214 417.62 350.716 422.224C352.209 426.801 355.76 430.856 362.072 434.296C368.401 437.744 377.471 440.552 389.907 442.612C402.336 444.67 418.087 445.973 437.754 446.438C462.409 447.02 495.814 441.554 531.818 431.581C567.813 421.611 606.368 407.148 641.314 389.763C676.264 372.375 707.58 352.076 729.118 330.446C750.674 308.798 762.34 285.917 758.258 263.359C750.02 217.828 728.222 177.054 687.261 148.762C646.285 120.46 586.025 104.576 500.737 109.042C431.973 112.642 394.953 123.045 377.345 137.597C368.565 144.852 364.618 153.133 363.953 162.136C363.286 171.158 365.911 180.958 370.38 191.249C374.849 201.54 381.139 212.275 387.758 223.161C388.932 225.091 390.115 227.025 391.301 228.963C396.794 237.941 402.326 246.981 407.035 255.884C418.474 277.509 425.201 298.572 414.638 316.295Z" stroke="url(#paint10_linear_523_590)" stroke-width="1.20408"/>
<path opacity="0.22449" d="M501.211 324.106C496.123 340.431 488.385 356.379 481.225 371.137C480.442 372.75 479.666 374.35 478.901 375.934C471.126 392.035 464.523 406.517 463.392 418.372C462.828 424.292 463.636 429.49 466.276 433.876C468.902 438.239 473.388 441.88 480.372 444.655C487.378 447.438 496.875 449.34 509.447 450.193C522.012 451.047 537.606 450.851 556.783 449.467C580.814 447.733 611.787 439.259 644.137 426.126C676.477 412.997 710.152 395.227 739.586 374.932C769.023 354.634 794.195 331.826 809.553 308.628C824.92 285.416 830.404 261.904 820.685 240.164C801.084 196.32 769.551 158.411 722.638 134.528C675.719 110.643 613.285 100.72 531.778 113.066C466.055 123.021 432.848 136.67 419.502 152.558C412.847 160.48 411.128 168.963 412.781 177.858C414.437 186.77 419.487 196.134 426.445 205.8C433.403 215.466 442.239 225.395 451.429 235.439C453.059 237.22 454.7 239.005 456.343 240.792C463.956 249.072 471.621 257.409 478.454 265.687C495.052 285.797 506.925 305.775 501.211 324.106Z" stroke="url(#paint11_linear_523_590)" stroke-width="1.22449"/>
<path opacity="0.244898" d="M536.472 336.632C535.714 353.089 532.291 369.425 529.124 384.543C528.778 386.195 528.435 387.833 528.099 389.455C524.68 405.943 521.981 420.741 523.918 432.461C524.885 438.314 527.001 443.345 530.7 447.415C534.382 451.467 539.679 454.616 547.146 456.679C554.637 458.748 564.316 459.724 576.71 459.388C589.098 459.053 604.154 457.409 622.383 454.268C645.212 450.333 673.054 439.156 701.046 423.283C729.028 407.417 757.119 386.883 780.455 364.271C803.793 341.657 822.356 316.982 831.31 292.839C840.266 268.687 839.582 245.139 824.58 224.726C794.359 183.605 754.086 149.413 702.506 130.4C650.937 111.39 587.915 107.496 512.1 127.175C450.953 143.046 422.285 159.496 413.42 176.28C404.594 192.991 415.349 210.175 433.791 227.819C443.011 236.639 454.118 245.541 465.593 254.518C467.628 256.111 469.675 257.705 471.725 259.302C481.221 266.7 490.778 274.146 499.514 281.613C520.738 299.752 537.322 318.178 536.472 336.632Z" stroke="url(#paint12_linear_523_590)" stroke-width="1.2449"/>
<path opacity="0.265306" d="M573.61 347.306C577.092 363.479 577.96 379.783 578.763 394.871C578.851 396.52 578.938 398.155 579.027 399.774C579.938 416.224 581.113 430.961 585.996 442.259C588.435 447.901 591.783 452.644 596.435 456.301C601.071 459.946 607.034 462.538 614.793 463.861C630.392 466.522 653.283 464.06 687.044 454.514C708.139 448.549 732.25 435.033 755.315 416.902C778.368 398.779 800.333 376.077 817.158 351.784C833.984 327.489 845.655 301.621 848.148 277.163C850.641 252.702 843.95 229.702 824.147 211.092C784.299 173.644 736.477 143.915 681.592 130.099C626.741 116.293 564.688 118.342 496.272 144.633C441.078 165.842 417.532 184.591 413.244 201.821C408.967 219.007 423.819 234.851 446.24 250.419C457.443 258.198 470.496 265.88 483.919 273.599C486.3 274.968 488.693 276.338 491.09 277.711C502.19 284.068 513.359 290.464 523.738 296.957C548.955 312.732 569.712 329.198 573.61 347.306Z" stroke="url(#paint13_linear_523_590)" stroke-width="1.26531"/>
<path opacity="0.285714" d="M612.093 355.993C619.617 371.485 624.641 387.346 629.291 402.027C629.799 403.632 630.303 405.222 630.805 406.797C635.908 422.798 640.83 437.107 648.469 447.71C656.102 458.304 666.35 465.07 682.02 466.214C697.803 467.367 719.334 462.846 749.606 450.384C768.498 442.607 788.394 427.17 806.102 407.302C823.799 387.446 839.269 363.214 849.348 337.9C859.427 312.585 864.107 286.208 860.249 262.058C856.391 237.907 844 216.017 819.992 199.632C771.73 166.695 717.71 142.048 660.93 133.626C604.204 125.212 544.603 132.974 485.055 165.008C436.999 190.86 419.007 211.358 419.269 228.588C419.532 245.806 438.028 259.947 463.783 273.102C476.648 279.673 491.28 285.977 506.276 292.28C508.937 293.398 511.61 294.517 514.286 295.637C526.68 300.824 539.146 306.042 550.873 311.427C579.367 324.513 603.68 338.672 612.093 355.993Z" stroke="url(#paint14_linear_523_590)" stroke-width="1.28571"/>
<path opacity="0.306122" d="M651.36 362.613C662.633 377.052 671.576 392.084 679.855 406C680.76 407.521 681.657 409.029 682.548 410.521C691.604 425.683 700.053 439.215 710.191 448.875C720.327 458.533 732.042 464.217 747.566 463.882C763.151 463.546 782.843 457.146 808.987 442.173C825.277 432.844 840.6 415.937 852.674 394.885C864.737 373.85 873.521 348.743 876.798 323.076C883.358 271.711 867.855 218.262 812.797 190.653C757.519 162.932 698.774 143.845 641.519 140.876C584.33 137.91 528.56 151.02 479.074 187.806C439.122 217.505 426.953 239.175 431.627 255.973C436.305 272.791 457.908 284.912 486.279 295.386C500.45 300.617 516.265 305.422 532.428 310.192C535.296 311.038 538.176 311.884 541.059 312.73C554.412 316.651 567.841 320.593 580.595 324.769C611.588 334.915 638.771 346.487 651.36 362.613Z" stroke="url(#paint15_linear_523_590)" stroke-width="1.30612"/>
<path opacity="0.326531" d="M690.847 367.136C705.487 380.189 718.019 394.036 729.622 406.858C730.89 408.259 732.147 409.648 733.394 411.023C746.069 424.987 757.742 437.422 770.063 445.92C782.387 454.419 795.244 458.897 810.25 457.128C825.271 455.357 842.706 447.297 864.212 430.271C877.586 419.682 888.108 401.783 894.422 380.111C900.729 358.463 902.811 333.139 899.408 307.776C892.599 257.029 863.853 206.255 803.307 184.382C742.551 162.434 680.637 149.236 624.304 151.644C596.149 152.848 569.408 157.949 544.902 167.791C520.401 177.631 498.087 192.23 478.805 212.475C447.685 245.15 441.445 267.405 450.283 283.365C459.145 299.368 483.244 309.211 513.469 316.811C528.565 320.607 545.147 323.834 562.052 326.994C565.053 327.555 568.064 328.113 571.079 328.673C585.041 331.263 599.079 333.868 612.523 336.762C645.196 343.797 674.513 352.572 690.847 367.136Z" stroke="url(#paint16_linear_523_590)" stroke-width="1.32653"/>
<path opacity="0.346939" d="M729.999 369.596C747.549 380.973 763.256 393.32 777.801 404.754C779.391 406.004 780.966 407.242 782.529 408.468C798.405 420.916 812.923 431.969 827.063 439.12C841.21 446.274 854.859 449.458 868.992 446.335C883.111 443.215 897.945 433.747 914.438 415.161C924.675 403.626 930.304 385.218 930.883 363.488C931.462 341.79 927 316.894 917.204 292.464C897.605 243.591 856.703 196.702 792.305 180.971C727.709 165.192 664.223 158.057 610.15 165.636C583.122 169.424 558.478 176.883 537.226 188.753C515.983 200.618 498.085 216.914 484.57 238.433C462.754 273.166 462.393 295.43 475.053 310.177C487.762 324.98 513.694 332.352 544.983 336.964C560.61 339.268 577.533 340.878 594.75 342.392C597.807 342.661 600.872 342.926 603.942 343.192C618.156 344.424 632.447 345.663 646.236 347.239C679.747 351.071 710.43 356.911 729.999 369.596Z" stroke="url(#paint17_linear_523_590)" stroke-width="1.34694"/>
<path opacity="0.367347" d="M768.283 370.084C788.224 379.544 806.625 390.122 823.665 399.919C825.527 400.989 827.373 402.05 829.203 403.1C847.793 413.76 864.712 423.19 880.269 428.848C895.834 434.51 909.912 436.349 922.846 431.985C935.752 427.631 947.719 417.032 958.973 397.397C965.944 385.235 966.717 366.791 961.731 345.55C956.754 324.347 946.068 300.49 930.321 277.582C898.819 231.756 847.136 189.832 780.583 180.48C713.84 171.101 650.378 170.048 599.811 182.469C574.535 188.677 552.518 198.243 534.925 211.787C517.344 225.323 504.144 242.86 496.525 265.075C484.227 300.937 489.551 322.656 505.603 335.855C521.727 349.112 548.798 353.89 580.354 355.477C596.114 356.27 612.956 356.266 630.058 356.141C633.094 356.119 636.138 356.093 639.187 356.067C653.3 355.946 667.489 355.825 681.276 356.079C714.787 356.699 746.055 359.54 768.283 370.084Z" stroke="url(#paint18_linear_523_590)" stroke-width="1.36735"/>
<path opacity="0.387755" d="M805.217 368.743C826.984 376.101 847.54 384.693 866.577 392.65C868.657 393.52 870.719 394.382 872.763 395.234C893.524 403.888 912.349 411.499 928.893 415.562C945.447 419.628 959.584 420.107 971.032 414.647C982.448 409.203 991.363 397.766 997.291 377.593C1000.96 365.112 997.026 347.081 986.781 326.847C976.557 306.652 960.115 284.403 939 263.548C896.76 221.832 835.916 185.795 768.919 182.89C701.732 179.977 639.849 184.872 593.915 201.694C570.953 210.102 552.014 221.478 538.383 236.314C524.763 251.139 516.414 269.451 514.67 291.798C513.262 309.849 515.237 324.032 519.917 335.113C524.593 346.184 531.985 354.196 541.478 359.891C560.505 371.307 588.005 373.437 619.046 372.04C637.323 371.218 656.725 369.182 676.277 367.13C689.951 365.695 703.698 364.252 717.184 363.212C749.877 360.689 780.956 360.541 805.217 368.743Z" stroke="url(#paint19_linear_523_590)" stroke-width="1.38776"/>
<path opacity="0.408163" d="M840.382 365.753C863.379 370.883 885.512 377.329 906.008 383.298C908.248 383.95 910.468 384.597 912.668 385.235C935.015 391.722 955.216 397.373 972.302 399.781C989.399 402.192 1003.23 401.333 1012.95 394.949C1022.65 388.582 1028.41 376.61 1029.05 356.399C1029.45 343.893 1021.06 326.695 1005.99 307.945C990.95 289.229 969.353 269.095 943.573 250.758C892 214.075 823.814 184.673 758.052 188.116C692.092 191.569 633.263 202.132 592.939 222.817C572.782 233.157 557.281 246.009 547.809 261.736C538.343 277.452 534.876 296.072 538.845 318.008C545.253 353.422 560.862 372.539 582.113 381.829C603.465 391.163 630.691 390.665 660.47 386.397C675.343 384.266 690.816 381.201 706.468 377.976C709.247 377.404 712.031 376.826 714.818 376.248C727.728 373.571 740.707 370.879 753.503 368.608C784.602 363.089 814.742 360.033 840.382 365.753Z" stroke="url(#paint20_linear_523_590)" stroke-width="1.40816"/>
<path opacity="0.428571" d="M873.415 361.319C897.03 364.155 920.138 368.353 941.534 372.239C943.873 372.664 946.191 373.085 948.487 373.5C971.812 377.718 992.835 381.321 1010.02 382.061C1027.21 382.801 1040.39 380.664 1048.2 373.548C1055.99 366.442 1058.57 354.238 1054.09 334.476C1051.32 322.235 1038.82 306.259 1019.47 289.414C1000.15 272.597 974.111 255.016 944.468 239.581C885.164 208.7 811.594 186.483 748.672 196.014C685.536 205.577 631.121 221.393 597.215 245.323C580.268 257.284 568.468 271.255 563.242 287.463C558.018 303.664 559.349 322.136 568.741 343.143C583.903 377.058 603.889 394.213 626.84 401.258C649.893 408.335 676.167 405.296 703.988 398.341C717.882 394.868 732.122 390.429 746.499 385.817C749.052 384.998 751.608 384.173 754.168 383.348C766.021 379.527 777.939 375.684 789.785 372.27C818.575 363.971 847.069 358.156 873.415 361.319Z" stroke="url(#paint21_linear_523_590)" stroke-width="1.42857"/>
<path opacity="0.44898" d="M904.013 355.667C927.636 356.201 951.109 358.109 972.838 359.876C975.213 360.069 977.567 360.261 979.898 360.449C1003.58 362.356 1024.87 363.881 1041.71 362.981C1058.56 362.08 1070.77 358.761 1076.53 351.116C1082.3 343.466 1081.74 331.329 1072.43 312.482C1066.65 300.789 1050.49 286.39 1027.48 271.809C1004.51 257.249 974.837 242.581 942.208 230.344C876.921 205.859 800.013 191.176 741.42 206.385C682.591 221.654 633.802 242.186 606.937 268.681C593.511 281.922 585.574 296.64 584.576 312.923C583.578 329.203 589.512 347.085 603.911 366.678C627.159 398.311 650.879 413.141 674.897 417.835C698.998 422.546 723.69 417.118 748.922 407.721C761.522 403.028 774.217 397.362 787.004 391.513C789.273 390.475 791.545 389.432 793.821 388.386C804.358 383.546 814.955 378.678 825.589 374.233C851.432 363.433 877.632 355.071 904.013 355.667Z" stroke="url(#paint22_linear_523_590)" stroke-width="1.44898"/>
<path opacity="0.469388" d="M931.931 349.048C954.966 347.332 978.201 346.969 999.703 346.634C1002.05 346.597 1004.38 346.561 1006.69 346.523C1030.13 346.14 1051.13 345.61 1067.21 343.142C1083.29 340.673 1094.24 336.298 1097.91 328.336C1101.58 320.342 1098 308.557 1084.24 291.06C1075.69 280.187 1056.39 267.675 1030.44 255.647C1004.52 243.632 972.084 232.15 937.395 223.317C867.969 205.639 789.797 198.631 736.87 218.97C683.683 239.408 641.556 264.018 622.16 292.354C602.793 320.649 606.063 352.692 643.787 388.144C674.265 416.787 700.997 428.997 725.444 431.297C749.938 433.6 772.473 425.994 794.569 414.455C805.601 408.694 816.484 401.976 827.414 395.067C829.353 393.842 831.294 392.61 833.238 391.376C842.24 385.663 851.295 379.917 860.492 374.579C882.839 361.61 906.168 350.967 931.931 349.048Z" stroke="url(#paint23_linear_523_590)" stroke-width="1.46939"/>
<path opacity="0.489796" d="M956.995 341.738C978.88 337.88 1001.3 335.322 1022.03 332.956C1024.3 332.697 1026.55 332.441 1028.77 332.186C1051.38 329.588 1071.57 327.082 1086.51 323.155C1101.43 319.232 1110.88 313.956 1112.44 305.885C1114 297.746 1107.59 286.588 1089.88 270.827C1078.86 261.02 1057.01 250.648 1028.88 241.386C1000.77 232.133 966.484 224.019 930.685 218.701C859.011 208.053 781.618 208.655 735.51 233.459C689.124 258.413 654.497 286.375 642.797 315.808C631.113 345.2 642.261 376.136 687.691 407.14C724.381 432.18 753.349 441.553 777.597 441.475C801.838 441.397 821.718 431.873 840.222 418.542C849.462 411.885 858.32 404.309 867.179 396.54C868.751 395.162 870.322 393.778 871.896 392.392C879.187 385.97 886.524 379.509 894.101 373.432C912.506 358.673 932.472 346.062 956.995 341.738Z" stroke="url(#paint24_linear_523_590)" stroke-width="1.4898"/>
<path opacity="0.510204" d="M979.109 334.026C999.325 328.184 1020.38 323.562 1039.85 319.287C1041.98 318.819 1044.09 318.356 1046.17 317.896C1067.4 313.216 1086.29 308.859 1099.74 303.62C1106.46 301.004 1111.76 298.193 1115.31 295.048C1118.85 291.917 1120.68 288.43 1120.43 284.415C1119.91 276.328 1110.91 266.046 1089.84 252.352C1076.71 243.822 1052.96 235.777 1023.43 229.417C993.927 223.061 958.728 218.405 922.767 216.618C886.802 214.831 850.114 215.916 817.618 221.024C785.117 226.133 756.892 235.253 737.733 249.495C699.1 278.214 672.597 308.739 668.62 338.522C664.647 368.274 683.139 397.396 734.861 423.333C776.62 444.274 807.009 450.669 830.454 448.29C853.832 445.918 870.642 434.782 885.204 420.043C892.477 412.682 899.152 404.46 905.786 396.044C906.962 394.552 908.138 393.053 909.315 391.553C914.767 384.6 920.256 377.601 926.073 370.955C940.2 354.814 956.401 340.587 979.109 334.026Z" stroke="url(#paint25_linear_523_590)" stroke-width="1.5102"/>
<path opacity="0.530612" d="M998.256 326.209C1016.34 318.591 1035.54 312.082 1053.29 306.065C1055.23 305.407 1057.15 304.755 1059.05 304.108C1078.41 297.527 1095.56 291.49 1107.23 285.114C1113.06 281.931 1117.45 278.703 1120.07 275.328C1122.68 271.974 1123.59 268.422 1122.34 264.534C1121.09 260.627 1117.65 256.369 1111.53 251.658C1105.41 246.949 1096.63 241.813 1084.76 236.142C1069.92 229.058 1044.96 223.462 1014.83 220.059C984.722 216.658 949.54 215.455 914.34 217.124C879.134 218.794 843.952 223.333 813.829 231.397C783.696 239.464 758.742 251.026 743.821 266.693C713.67 298.35 695.688 330.61 699.27 360.017C702.85 389.406 727.985 416.074 784.47 436.479C830.061 452.949 861.05 456.309 883.122 451.762C905.071 447.241 918.494 434.827 928.875 419.093C934.062 411.23 938.46 402.583 942.771 393.745C943.535 392.178 944.297 390.605 945.06 389.03C948.595 381.731 952.155 374.379 956.121 367.34C965.751 350.252 977.885 334.79 998.256 326.209Z" stroke="url(#paint26_linear_523_590)" stroke-width="1.53061"/>
<path opacity="0.55102" d="M1014.49 318.583C1030.05 309.434 1046.96 301.263 1062.59 293.711C1064.3 292.886 1066 292.067 1067.67 291.256C1084.71 282.999 1099.75 275.49 1109.41 268.173C1114.23 264.522 1117.64 260.978 1119.31 257.471C1120.97 253.991 1120.97 250.461 1118.8 246.786C1116.61 243.092 1112.23 239.259 1105.13 235.237C1098.04 231.22 1088.28 227.036 1075.4 222.626C1059.3 217.112 1033.78 214.014 1003.85 213.545C973.927 213.077 939.66 215.234 906.094 220.196C872.521 225.158 839.692 232.919 812.633 243.639C785.554 254.365 764.399 267.995 753.941 284.646C732.761 318.367 723.471 351.52 734.269 379.858C745.066 408.194 775.998 431.849 835.648 446.42C883.784 458.179 914.557 458.525 934.736 451.996C954.754 445.519 964.575 432.183 970.653 415.875C973.693 407.72 975.776 398.872 977.73 389.839C978.077 388.239 978.419 386.632 978.762 385.023C980.35 377.565 981.951 370.049 984.022 362.802C989.05 345.208 996.916 328.919 1014.49 318.583Z" stroke="url(#paint27_linear_523_590)" stroke-width="1.55102"/>
<path opacity="0.571429" d="M1027.96 311.441C1040.67 301.04 1054.94 291.468 1068.12 282.622C1069.56 281.655 1070.99 280.696 1072.4 279.746C1086.77 270.076 1099.38 261.334 1106.85 253.29C1110.58 249.277 1112.96 245.516 1113.69 241.965C1114.41 238.447 1113.54 235.018 1110.52 231.636C1107.49 228.237 1102.3 224.907 1094.44 221.649C1086.6 218.395 1076.13 215.231 1062.6 212.141C1045.68 208.276 1020.29 207.659 991.302 210.026C962.328 212.39 929.819 217.729 898.689 225.739C867.553 233.751 837.838 244.423 814.431 257.438C791 270.466 774.048 285.75 768.151 302.946C756.186 337.835 755.535 371.048 773.044 397.678C790.557 424.316 826.322 444.495 887.515 453.094C936.891 460.032 966.665 457.467 984.493 449.189C993.365 445.07 999.283 439.533 1003.22 433.007C1007.16 426.458 1009.14 418.865 1010.03 410.624C1010.91 402.385 1010.7 393.557 1010.33 384.555C1010.26 382.961 1010.19 381.361 1010.11 379.758C1009.78 372.328 1009.44 364.837 1009.62 357.564C1010.05 339.91 1013.56 323.221 1027.96 311.441Z" stroke="url(#paint28_linear_523_590)" stroke-width="1.57143"/>
<path opacity="0.591837" d="M1038.88 305.05C1048.51 293.701 1059.85 283.015 1070.32 273.143C1071.47 272.063 1072.6 270.993 1073.72 269.932C1085.14 259.142 1095.08 249.428 1100.26 240.879C1102.84 236.614 1104.18 232.731 1103.99 229.212C1103.8 225.727 1102.1 222.47 1098.35 219.454C1094.57 216.422 1088.73 213.658 1080.34 211.216C1071.96 208.775 1061.08 206.669 1047.26 204.922C1029.98 202.737 1005.36 204.518 978.022 209.549C950.696 214.578 920.713 222.841 892.731 233.583C864.744 244.327 838.797 257.535 819.52 272.435C800.221 287.354 787.747 303.857 786.396 321.174C783.651 356.346 791.383 388.819 814.952 413.165C838.531 437.522 878.075 453.865 939.21 456.516C988.541 458.655 1016.59 453.356 1031.68 443.603C1039.19 438.751 1043.49 432.797 1045.63 426.07C1047.78 419.317 1047.78 411.728 1046.56 403.604C1045.34 395.48 1042.91 386.885 1040.28 378.132C1039.81 376.582 1039.34 375.027 1038.87 373.47C1036.67 366.248 1034.46 358.964 1032.8 351.844C1028.78 334.566 1027.95 317.92 1038.88 305.05Z" stroke="url(#paint29_linear_523_590)" stroke-width="1.59184"/>
<path opacity="0.612245" d="M1047.54 299.671C1053.95 287.693 1062.16 276.204 1069.75 265.59C1070.58 264.429 1071.4 263.278 1072.22 262.139C1080.48 250.541 1087.6 240.131 1090.42 231.303C1091.82 226.899 1092.13 222.981 1091.05 219.557C1089.99 216.167 1087.53 213.147 1083.16 210.558C1078.76 207.955 1072.44 205.804 1063.75 204.203C1055.06 202.604 1044.05 201.563 1030.31 201.147C1013.12 200.627 989.862 204.662 964.805 212.124C939.763 219.582 912.979 230.445 888.75 243.54C864.516 256.638 842.872 271.95 828.08 288.292C813.271 304.65 805.43 321.924 808.513 338.962C814.773 373.558 830.442 404.535 859.3 426.098C888.165 447.666 930.373 459.927 989.915 456.809C1037.97 454.293 1063.62 446.504 1075.68 435.586C1081.68 430.153 1084.31 423.942 1084.67 417.17C1085.04 410.374 1083.11 402.963 1079.88 395.146C1076.65 387.329 1072.14 379.164 1067.39 370.865C1066.55 369.396 1065.7 367.922 1064.85 366.446C1060.9 359.601 1056.93 352.699 1053.53 345.904C1045.28 329.415 1040.27 313.251 1047.54 299.671Z" stroke="url(#paint30_linear_523_590)" stroke-width="1.61224"/>
<path opacity="0.632653" d="M1054.31 295.487C1057.44 283.206 1062.42 271.234 1067.03 260.174C1067.53 258.964 1068.03 257.765 1068.52 256.578C1073.53 244.498 1077.73 233.677 1078.2 224.797C1078.44 220.366 1077.73 216.498 1075.81 213.235C1073.91 210.001 1070.76 207.28 1065.9 205.164C1061.01 203.036 1054.4 201.525 1045.63 200.771C1036.87 200.017 1026.01 200.022 1012.67 200.891C996.006 201.976 974.652 208.065 952.428 217.668C930.219 227.264 907.199 240.345 887.206 255.367C867.209 270.391 850.269 287.335 840.186 304.649C830.095 321.975 826.928 339.57 834.247 355.941C849.087 389.137 872.071 417.921 905.348 436.286C938.618 454.646 982.353 462.69 1038.87 454.129C1084.48 447.22 1107.18 437.246 1116 425.49C1124.74 413.836 1119.94 400.256 1109.73 385.59C1104.63 378.258 1098.21 370.706 1091.52 363.05C1090.34 361.694 1089.14 360.334 1087.95 358.972C1082.41 352.66 1076.83 346.296 1071.83 339.983C1059.69 324.663 1050.78 309.387 1054.31 295.487Z" stroke="url(#paint31_linear_523_590)" stroke-width="1.63265"/>
<path opacity="0.653061" d="M1059.59 292.631C1059.45 280.371 1061.19 268.241 1062.79 257.032C1062.97 255.806 1063.14 254.591 1063.31 253.388C1065.04 241.152 1066.33 230.209 1064.5 221.497C1063.6 217.15 1061.93 213.421 1059.22 210.391C1056.53 207.382 1052.78 205.013 1047.57 203.402C1037.04 200.146 1020.58 199.984 995.288 204.145C979.551 206.734 960.564 214.629 941.627 226.038C922.704 237.437 903.891 252.308 888.487 268.793C873.08 285.28 861.105 303.358 855.826 321.167C850.545 338.982 851.984 356.451 863.249 371.779C886.046 402.8 915.564 428.764 952.316 443.608C989.035 458.438 1033.17 462.243 1085.35 448.698C1127.5 437.759 1146.76 425.955 1152.23 413.702C1157.68 401.521 1149.56 388.685 1135.96 375.303C1129.16 368.619 1121.04 361.843 1112.65 354.995C1111.16 353.781 1109.66 352.565 1108.16 351.347C1101.21 345.703 1094.21 340.015 1087.79 334.324C1072.19 320.51 1059.74 306.473 1059.59 292.631Z" stroke="url(#paint32_linear_523_590)" stroke-width="1.65306"/>
<path opacity="0.673469" d="M1063.76 291.203C1060.49 279.278 1059.04 267.306 1057.71 256.241C1057.56 255.031 1057.42 253.832 1057.27 252.645C1055.79 240.571 1054.22 229.787 1050.22 221.457C1046.23 213.145 1039.94 207.469 1029.16 205.304C1018.22 203.104 1002.36 204.447 979.084 210.814C964.632 214.769 948.393 224.183 933.089 237.027C917.802 249.858 903.507 266.061 892.909 283.524C882.309 300.989 875.421 319.691 874.911 337.521C874.402 355.353 880.272 372.26 895.098 386.194C925.044 414.336 960.173 436.937 999.405 448.031C1038.58 459.108 1082.01 458.762 1128.74 440.805C1166.5 426.296 1181.98 413.054 1184.1 400.64C1186.21 388.258 1175.07 376.463 1158.5 364.657C1150.23 358.764 1140.66 352.905 1130.82 347.005C1129.07 345.959 1127.32 344.912 1125.56 343.863C1117.42 339.002 1109.22 334.106 1101.57 329.155C1083.01 317.133 1067.46 304.634 1063.76 291.203Z" stroke="url(#paint33_linear_523_590)" stroke-width="1.67347"/>
<path opacity="0.693878" d="M1067.26 291.264C1061.03 279.967 1056.56 268.456 1052.42 257.813C1051.97 256.65 1051.52 255.496 1051.07 254.355C1046.54 242.748 1042.24 232.393 1036.23 224.645C1030.23 216.902 1022.65 211.919 1011.67 210.791C1000.58 209.654 985.686 212.397 964.925 220.706C952.066 225.853 938.864 236.468 927.431 250.355C916.013 264.222 906.417 281.281 900.705 299.231C889.268 335.176 893.463 374.481 929.313 398.947C965.438 423.601 1005.14 442.394 1045.83 449.608C1086.44 456.808 1128.14 452.499 1168.48 430.8C1201.09 413.255 1212.57 398.991 1211.41 386.742C1210.26 374.481 1196.44 363.995 1177.41 354.013C1167.92 349.032 1157.18 344.203 1146.17 339.363C1144.22 338.504 1142.26 337.646 1140.3 336.786C1131.2 332.801 1122.04 328.789 1113.4 324.672C1092.42 314.675 1074.26 303.958 1067.26 291.264Z" stroke="url(#paint34_linear_523_590)" stroke-width="1.69388"/>
<path opacity="0.714286" d="M1015.93 299.329C1007.01 288.925 999.727 278.155 992.994 268.194C992.257 267.105 991.528 266.026 990.803 264.957C983.439 254.099 976.618 244.425 968.82 237.438C961.019 230.449 952.377 226.272 941.449 226.177C930.486 226.082 916.875 230.09 899.031 240.035C888.016 246.174 878.041 257.653 870.601 272.178C863.174 286.676 858.323 304.112 857.445 322.063C855.689 357.995 869.855 395.819 910.795 416.349C952.002 437.013 995.158 451.661 1036.28 454.964C1077.32 458.26 1116.35 450.267 1149.57 425.571C1176.46 405.587 1183.82 390.725 1179.55 378.947C1175.27 367.12 1159.2 358.173 1138.26 350.205C1127.81 346.229 1116.21 342.515 1104.35 338.816C1102.24 338.16 1100.13 337.504 1098.02 336.848C1088.22 333.806 1078.36 330.745 1068.97 327.534C1046.16 319.736 1025.93 310.995 1015.93 299.329Z" stroke="url(#paint35_linear_523_590)" stroke-width="1.71429"/>
<path opacity="0.734694" d="M1019.31 302.399C1008.03 293.125 998.229 283.345 989.165 274.297C988.175 273.308 987.193 272.328 986.218 271.358C976.317 261.501 967.238 252.734 957.904 246.663C948.563 240.586 939.108 237.304 928.5 238.211C917.907 239.117 905.846 244.228 891.226 255.471C882.238 262.383 875.579 274.379 872.143 289.14C868.716 303.865 868.525 321.208 872.303 338.694C879.862 373.684 903.272 409.101 948.118 425.301C993.212 441.592 1038.65 451.873 1079.2 451.33C1099.47 451.059 1118.47 448.086 1135.6 441.836C1152.71 435.59 1168.01 426.05 1180.84 412.573C1201.59 390.788 1204.86 375.745 1197.72 364.719C1190.52 353.619 1172.67 346.395 1150.41 340.572C1139.3 337.666 1127.14 335.121 1114.74 332.614C1112.54 332.169 1110.33 331.725 1108.12 331.281C1097.88 329.224 1087.58 327.154 1077.7 324.896C1053.68 319.412 1031.94 312.784 1019.31 302.399Z" stroke="url(#paint36_linear_523_590)" stroke-width="1.73469"/>
<path opacity="0.755102" d="M1023.24 306.904C1009.97 298.955 997.999 290.381 986.925 282.447C985.715 281.58 984.515 280.72 983.325 279.87C971.234 271.23 960.213 263.566 949.634 258.536C939.045 253.5 929.044 251.175 919.005 253.027C909.013 254.87 898.713 260.906 887.514 273.094C880.663 280.55 877.311 292.724 877.784 307.331C878.255 321.889 882.522 338.693 890.658 355.278C906.937 388.46 938.639 420.635 986.136 432.238C1033.87 443.897 1080.39 449.708 1119.43 445.478C1138.94 443.364 1156.52 438.749 1171.43 431.141C1186.33 423.543 1198.62 412.934 1207.52 398.75C1221.93 375.818 1221.24 360.992 1211.51 350.969C1201.7 340.864 1182.58 335.493 1159.58 331.885C1146.04 329.762 1131.29 328.264 1116.41 326.754C1106 325.697 1095.52 324.633 1085.35 323.344C1060.76 320.225 1038.09 315.795 1023.24 306.904Z" stroke="url(#paint37_linear_523_590)" stroke-width="1.7551"/>
<path opacity="0.77551" d="M1028.09 312.743C1013.24 306.275 999.487 299.083 986.764 292.427C985.373 291.7 983.994 290.979 982.628 290.266C968.743 283.02 956.136 276.619 944.628 272.723C933.107 268.823 922.835 267.488 913.595 270.203C904.414 272.901 896.029 279.669 888.344 292.448C886.016 296.32 884.798 301.264 884.7 307.035C884.601 312.8 885.621 319.334 887.706 326.347C891.876 340.371 900.286 356.223 912.38 371.512C936.575 402.099 975.42 430.313 1024.29 437.18C1073.38 444.077 1119.81 445.431 1156.45 437.76C1193.07 430.093 1219.65 413.483 1229.56 384.574C1233.59 372.831 1234.48 363.412 1232.88 355.844C1231.29 348.286 1227.22 342.515 1221.21 338.093C1209.14 329.213 1189.29 325.772 1166.15 324.393C1152.52 323.58 1137.89 323.485 1123.13 323.389C1112.8 323.321 1102.41 323.254 1092.26 322.939C1067.71 322.179 1044.69 319.974 1028.09 312.743Z" stroke="url(#paint38_linear_523_590)" stroke-width="1.77551"/>
<path opacity="0.795918" d="M1034.16 319.751C1018.18 314.874 1003.07 309.197 989.087 303.943C987.559 303.369 986.044 302.8 984.543 302.237C969.292 296.521 955.488 291.502 943.381 288.801C931.26 286.097 920.994 285.755 912.754 289.231C904.574 292.682 898.199 299.981 894.02 313.013C892.758 316.948 892.832 321.818 894.198 327.394C895.562 332.962 898.201 339.174 901.992 345.751C909.573 358.904 921.713 373.435 937.273 387.083C968.4 414.387 1013.08 438.052 1062.04 440.175C1111.22 442.307 1156.43 439.329 1189.88 428.54C1223.33 417.753 1244.76 399.265 1247.01 370.48C1247.92 358.778 1246.39 349.613 1242.94 342.463C1239.5 335.323 1234.1 330.129 1227.18 326.412C1213.27 318.95 1193.21 317.458 1170.5 318.261C1157.13 318.734 1142.97 319.993 1128.68 321.262C1118.68 322.15 1108.63 323.043 1098.74 323.676C1074.83 325.207 1052.03 325.201 1034.16 319.751Z" stroke="url(#paint39_linear_523_590)" stroke-width="1.79592"/>
<path opacity="0.816327" d="M1041.72 327.771C1025.05 324.551 1009.02 320.478 994.199 316.708C992.578 316.296 990.972 315.888 989.381 315.485C973.211 311.387 958.619 307.829 946.249 306.349C933.864 304.867 923.875 305.493 916.801 309.606C909.777 313.689 905.452 321.318 904.689 334.283C904.459 338.198 905.755 342.891 908.475 348.143C911.192 353.389 915.302 359.136 920.615 365.129C931.242 377.115 946.619 390.005 965.078 401.727C1002 425.176 1051.1 443.851 1098.92 441.348C1146.95 438.833 1189.87 431.755 1219.47 418.238C1249.06 404.725 1265.11 384.901 1260.05 356.916C1257.99 345.539 1254.21 336.839 1249.08 330.262C1243.96 323.694 1237.45 319.188 1229.83 316.249C1214.53 310.347 1194.79 310.771 1173.06 313.657C1160.27 315.356 1146.9 317.887 1133.42 320.439C1123.99 322.226 1114.5 324.024 1105.11 325.554C1082.39 329.255 1060.36 331.37 1041.72 327.771Z" stroke="url(#paint40_linear_523_590)" stroke-width="1.81633"/>
<path opacity="0.836735" d="M1105.52 330.148C1088.62 328.605 1072.13 326.178 1056.88 323.933C1055.21 323.688 1053.56 323.444 1051.93 323.205C1035.29 320.768 1020.33 318.706 1008.03 318.439C995.711 318.171 986.254 319.711 980.469 324.324C974.719 328.909 972.433 336.67 974.928 349.267C976.446 356.932 984.708 366.959 998.006 377.566C1011.25 388.131 1029.3 399.121 1050.04 408.694C1091.52 427.846 1143.54 441.243 1189.05 434.351C1234.79 427.422 1274.45 416.575 1299.64 400.771C1312.23 392.873 1321.17 383.763 1325.48 373.327C1329.78 362.907 1329.49 351.123 1323.54 337.806C1318.71 327.017 1312.89 318.97 1306.29 313.101C1299.71 307.242 1292.31 303.511 1284.24 301.395C1268.03 297.144 1249.1 299.398 1228.84 304.218C1216.91 307.056 1204.65 310.748 1192.27 314.473C1183.61 317.081 1174.89 319.705 1166.2 322.063C1145.19 327.763 1124.43 331.874 1105.52 330.148Z" stroke="url(#paint41_linear_523_590)" stroke-width="1.83673"/>
<path opacity="0.857143" d="M1116.58 339.685C1099.9 339.795 1083.4 339.012 1068.14 338.288C1066.48 338.209 1064.82 338.131 1063.18 338.054C1046.54 337.277 1031.61 336.703 1019.7 337.607C1007.77 338.512 999.077 340.885 994.66 345.853C990.259 350.805 989.956 358.509 995.481 370.451C998.855 377.742 1009.33 386.652 1024.77 395.623C1040.15 404.563 1060.27 413.455 1082.63 420.726C1127.35 435.277 1180.79 443.266 1222.91 432.331C1265.31 421.327 1300.86 407.124 1321.24 389.516C1331.42 380.718 1337.79 371.094 1339.37 360.621C1340.95 350.16 1337.77 338.805 1328.72 326.499C1314.09 306.591 1298.3 297.597 1281.81 295.06C1265.18 292.5 1247.52 296.449 1229.17 303.011C1220.02 306.285 1210.75 310.19 1201.4 314.218C1199.74 314.933 1198.07 315.652 1196.41 316.371C1188.7 319.705 1180.94 323.059 1173.17 326.14C1154.32 333.623 1135.29 339.561 1116.58 339.685Z" stroke="url(#paint42_linear_523_590)" stroke-width="1.85714"/>
<path opacity="0.877551" d="M1129.6 349.706C1113.56 351.401 1097.48 352.217 1082.61 352.971C1080.98 353.054 1079.37 353.136 1077.78 353.218C1061.56 354.052 1047.06 354.919 1035.83 356.922C1024.59 358.927 1016.86 362.028 1013.84 367.205C1010.82 372.388 1012.41 379.86 1020.67 390.881C1025.73 397.634 1038.04 405.25 1055.1 412.434C1072.1 419.599 1093.66 426.263 1116.95 431.15C1163.58 440.932 1216.93 443.538 1254.75 429.004C1292.87 414.357 1323.59 397.283 1338.89 378.376C1346.53 368.931 1350.32 359.046 1349.28 348.789C1348.24 338.537 1342.38 327.865 1330.64 316.831C1311.65 298.98 1294.21 291.804 1277.74 290.927C1261.16 290.044 1245.16 295.514 1229.11 303.586C1221.11 307.613 1213.14 312.26 1205.12 317.037C1203.7 317.885 1202.27 318.736 1200.85 319.589C1194.24 323.539 1187.58 327.515 1180.86 331.228C1164.53 340.244 1147.63 347.802 1129.6 349.706Z" stroke="url(#paint43_linear_523_590)" stroke-width="1.87755"/>
<path opacity="0.897959" d="M1144.64 360.014C1129.63 363.187 1114.36 365.515 1100.26 367.665C1098.72 367.901 1097.19 368.134 1095.68 368.365C1080.29 370.723 1066.59 372.945 1056.31 375.948C1046.02 378.95 1039.42 382.656 1037.79 387.896C1036.15 393.178 1039.49 400.254 1050.13 410.125C1056.66 416.191 1070.39 422.377 1088.52 427.682C1106.62 432.975 1128.95 437.347 1152.52 439.836C1199.73 444.82 1251.55 442.219 1284.29 424.61C1317.34 406.83 1342.68 387.426 1352.77 367.734C1362.84 348.1 1357.78 328.136 1329.85 309.075C1307.22 293.631 1288.68 288.369 1272.66 289.097C1256.58 289.828 1242.59 296.607 1229.14 305.929C1222.44 310.577 1215.91 315.823 1209.36 321.202C1208.2 322.156 1207.04 323.114 1205.88 324.073C1200.49 328.519 1195.06 332.997 1189.49 337.228C1176 347.496 1161.56 356.438 1144.64 360.014Z" stroke="url(#paint44_linear_523_590)" stroke-width="1.89796"/>
<path opacity="0.918367" d="M1161.7 370.401C1148.07 374.909 1133.99 378.625 1120.99 382.056C1119.57 382.431 1118.16 382.803 1116.77 383.172C1102.58 386.928 1090.01 390.384 1080.9 394.263C1071.8 398.135 1066.44 402.305 1066.16 407.473C1065.86 412.729 1070.78 419.26 1083.39 427.793C1091.15 433.048 1105.84 437.715 1124.52 441.103C1143.16 444.485 1165.63 446.568 1188.83 446.712C1235.33 447.001 1284.3 439.507 1311.33 419.411C1338.69 399.073 1358.25 377.917 1363.16 357.95C1368.04 338.039 1358.38 319.21 1326.93 303.439C1301.46 290.668 1282.38 287.359 1267.21 289.598C1252.04 291.836 1240.33 299.685 1229.71 309.97C1224.41 315.098 1219.43 320.788 1214.46 326.615C1213.58 327.647 1212.69 328.683 1211.81 329.722C1207.72 334.536 1203.6 339.388 1199.29 344.013C1188.83 355.233 1177.12 365.299 1161.7 370.401Z" stroke="url(#paint45_linear_523_590)" stroke-width="1.91837"/>
<path opacity="0.938776" d="M1180.72 380.661C1168.78 386.332 1156.21 391.279 1144.61 395.843C1143.34 396.343 1142.08 396.837 1140.84 397.328C1128.18 402.323 1117.01 406.865 1109.26 411.477C1101.54 416.072 1097.5 420.557 1098.46 425.532C1099.46 430.641 1105.75 436.499 1119.89 443.554C1128.61 447.906 1143.81 451.016 1162.49 452.504C1181.14 453.99 1203.14 453.851 1225.36 451.767C1247.59 449.682 1269.99 445.657 1289.44 439.39C1308.91 433.123 1325.33 424.645 1335.77 413.684C1356.99 391.407 1370.55 369.1 1370.4 349.345C1370.26 329.637 1356.46 312.328 1322.52 300.067C1295.06 290.144 1275.98 288.77 1262.02 292.39C1248.13 295.991 1238.87 304.652 1231.22 315.6C1227.41 321.06 1224.03 327.035 1220.68 333.148C1220.09 334.231 1219.5 335.318 1218.91 336.407C1216.16 341.456 1213.39 346.55 1210.38 351.441C1203.1 363.302 1194.31 374.213 1180.72 380.661Z" stroke="url(#paint46_linear_523_590)" stroke-width="1.93878"/>
<path opacity="0.959184" d="M1201.63 390.592C1191.6 397.229 1180.81 403.223 1170.86 408.749C1169.77 409.353 1168.69 409.953 1167.63 410.546C1156.76 416.595 1147.23 422.05 1140.98 427.241C1137.86 429.828 1135.64 432.288 1134.45 434.666C1133.28 437.017 1133.09 439.348 1134.16 441.732C1136.35 446.584 1143.78 451.663 1158.99 457.15C1168.39 460.539 1183.66 462.099 1201.84 461.758C1219.99 461.417 1240.95 459.183 1261.63 455.044C1282.33 450.904 1302.71 444.869 1319.73 436.948C1336.77 429.023 1350.33 419.267 1357.59 407.711C1372.39 384.138 1379.89 361.277 1374.96 342.19C1370.03 323.135 1352.67 307.674 1317.29 299.031C1288.66 292.038 1270.12 292.529 1257.68 297.366C1245.37 302.156 1238.68 311.367 1234.06 322.673C1231.75 328.316 1229.98 334.416 1228.27 340.656C1227.97 341.76 1227.67 342.869 1227.37 343.979C1225.98 349.131 1224.57 354.334 1222.9 359.361C1218.83 371.549 1213.08 383.011 1201.63 390.592Z" stroke="url(#paint47_linear_523_590)" stroke-width="1.95918"/>
<path opacity="0.979592" d="M1224.25 400C1216.33 407.385 1207.53 414.219 1199.41 420.515C1198.53 421.205 1197.65 421.887 1196.78 422.564C1187.92 429.457 1180.2 435.638 1175.53 441.248C1173.21 444.042 1171.71 446.615 1171.17 449C1170.63 451.351 1171.01 453.605 1172.61 455.807C1174.23 458.034 1177.11 460.217 1181.61 462.333C1186.1 464.446 1192.14 466.468 1200.02 468.4C1219.68 473.221 1257.87 471.101 1294.24 460.409C1330.66 449.706 1364.76 430.567 1376.85 401.699C1387.24 376.882 1388.77 354.075 1378.9 336.239C1369.04 318.404 1347.68 305.36 1311.87 300.328C1282.91 296.259 1265.38 298.491 1254.74 304.353C1244.24 310.139 1240.15 319.647 1238.52 331.019C1237.71 336.698 1237.52 342.771 1237.42 348.98C1237.4 350.078 1237.39 351.18 1237.38 352.285C1237.31 357.41 1237.25 362.589 1236.88 367.625C1236 379.826 1233.33 391.53 1224.25 400Z" stroke="url(#paint48_linear_523_590)" stroke-width="1.97959"/>
<path d="M1248.38 408.701C1242.68 416.605 1236.01 424.056 1229.87 430.92C1229.2 431.671 1228.53 432.415 1227.87 433.153C1221.16 440.667 1215.37 447.376 1212.33 453.244C1210.82 456.165 1210.04 458.789 1210.11 461.136C1210.19 463.447 1211.1 465.585 1213.16 467.564C1215.24 469.566 1218.51 471.411 1223.3 473.041C1228.08 474.669 1234.32 476.064 1242.28 477.2C1262.22 480.046 1293.83 478.608 1323.58 466.982C1353.29 455.373 1381.08 433.64 1393.64 395.912C1398.72 372.296 1394.54 350.094 1380.43 333.415C1366.31 316.716 1342.11 305.412 1306.87 303.884C1278.37 302.649 1262.29 306.455 1253.65 313.125C1245.13 319.7 1243.6 329.274 1244.87 340.442C1245.5 346.02 1246.82 351.923 1248.27 357.952C1248.52 359.017 1248.78 360.087 1249.04 361.159C1250.25 366.134 1251.47 371.164 1252.37 376.082C1254.55 387.997 1254.92 399.617 1248.38 408.701Z" stroke="url(#paint49_linear_523_590)" stroke-width="2"/>
</g>
<defs>
<linearGradient id="paint0_linear_523_590" x1="441.386" y1="387.856" x2="425.371" y2="81.9863" gradientUnits="userSpaceOnUse">
<stop stop-color="#5356E0"/>
<stop offset="1" stop-color="#6868AE"/>
</linearGradient>
<linearGradient id="paint1_linear_523_590" x1="497.377" y1="385.19" x2="451.191" y2="80.2735" gradientUnits="userSpaceOnUse">
<stop stop-color="#5356E0"/>
<stop offset="1" stop-color="#6868AE"/>
</linearGradient>
<linearGradient id="paint2_linear_523_590" x1="497.07" y1="385.464" x2="417.865" y2="80.3068" gradientUnits="userSpaceOnUse">
<stop stop-color="#5356E0"/>
<stop offset="1" stop-color="#6868AE"/>
</linearGradient>
<linearGradient id="paint3_linear_523_590" x1="600.752" y1="369.842" x2="483.429" y2="64.5371" gradientUnits="userSpaceOnUse">
<stop stop-color="#5356E0"/>
<stop offset="1" stop-color="#6868AE"/>
</linearGradient>
<linearGradient id="paint4_linear_523_590" x1="646.618" y1="357.874" x2="483.678" y2="54.989" gradientUnits="userSpaceOnUse">
<stop stop-color="#5356E0"/>
<stop offset="1" stop-color="#6868AE"/>
</linearGradient>
<linearGradient id="paint5_linear_523_590" x1="687.783" y1="343.625" x2="469.655" y2="50.194" gradientUnits="userSpaceOnUse">
<stop stop-color="#5356E0"/>
<stop offset="1" stop-color="#6868AE"/>
</linearGradient>
<linearGradient id="paint6_linear_523_590" x1="723.801" y1="327.594" x2="440.729" y2="57.9932" gradientUnits="userSpaceOnUse">
<stop stop-color="#5356E0"/>
<stop offset="1" stop-color="#6868AE"/>
</linearGradient>
<linearGradient id="paint7_linear_523_590" x1="754.364" y1="310.312" x2="401.66" y2="88.7837" gradientUnits="userSpaceOnUse">
<stop stop-color="#5356E0"/>
<stop offset="1" stop-color="#6868AE"/>
</linearGradient>
<linearGradient id="paint8_linear_523_590" x1="779.314" y1="292.326" x2="366.68" y2="150.82" gradientUnits="userSpaceOnUse">
<stop stop-color="#5356E0"/>
<stop offset="1" stop-color="#6868AE"/>
</linearGradient>
<linearGradient id="paint9_linear_523_590" x1="744.938" y1="280.572" x2="303.877" y2="246.155" gradientUnits="userSpaceOnUse">
<stop stop-color="#5356E0"/>
<stop offset="1" stop-color="#6868AE"/>
</linearGradient>
<linearGradient id="paint10_linear_523_590" x1="758.77" y1="262.819" x2="334.982" y2="339.499" gradientUnits="userSpaceOnUse">
<stop stop-color="#5356E0"/>
<stop offset="1" stop-color="#6868AE"/>
</linearGradient>
<linearGradient id="paint11_linear_523_590" x1="821.076" y1="239.583" x2="452.308" y2="404.444" gradientUnits="userSpaceOnUse">
<stop stop-color="#5356E0"/>
<stop offset="1" stop-color="#6868AE"/>
</linearGradient>
<linearGradient id="paint12_linear_523_590" x1="824.852" y1="224.11" x2="526.72" y2="443.212" gradientUnits="userSpaceOnUse">
<stop stop-color="#5356E0"/>
<stop offset="1" stop-color="#6868AE"/>
</linearGradient>
<linearGradient id="paint13_linear_523_590" x1="824.301" y1="210.445" x2="594.265" y2="455.222" gradientUnits="userSpaceOnUse">
<stop stop-color="#5356E0"/>
<stop offset="1" stop-color="#6868AE"/>
</linearGradient>
<linearGradient id="paint14_linear_523_590" x1="820.029" y1="198.956" x2="647.719" y2="451.439" gradientUnits="userSpaceOnUse">
<stop stop-color="#5356E0"/>
<stop offset="1" stop-color="#6868AE"/>
</linearGradient>
<linearGradient id="paint15_linear_523_590" x1="812.715" y1="189.948" x2="686.89" y2="440.861" gradientUnits="userSpaceOnUse">
<stop stop-color="#5356E0"/>
<stop offset="1" stop-color="#6868AE"/>
</linearGradient>
<linearGradient id="paint16_linear_523_590" x1="803.096" y1="183.65" x2="714.415" y2="429.135" gradientUnits="userSpaceOnUse">
<stop stop-color="#5356E0"/>
<stop offset="1" stop-color="#6868AE"/>
</linearGradient>
<linearGradient id="paint17_linear_523_590" x1="791.949" y1="180.217" x2="733.53" y2="419.372" gradientUnits="userSpaceOnUse">
<stop stop-color="#5356E0"/>
<stop offset="1" stop-color="#6868AE"/>
</linearGradient>
<linearGradient id="paint18_linear_523_590" x1="780.064" y1="179.723" x2="747.266" y2="413.128" gradientUnits="userSpaceOnUse">
<stop stop-color="#5356E0"/>
<stop offset="1" stop-color="#6868AE"/>
</linearGradient>
<linearGradient id="paint19_linear_523_590" x1="768.225" y1="182.166" x2="758.301" y2="411.062" gradientUnits="userSpaceOnUse">
<stop stop-color="#5356E0"/>
<stop offset="1" stop-color="#6868AE"/>
</linearGradient>
<linearGradient id="paint20_linear_523_590" x1="757.193" y1="187.468" x2="769.017" y2="413.292" gradientUnits="userSpaceOnUse">
<stop stop-color="#5356E0"/>
<stop offset="1" stop-color="#6868AE"/>
</linearGradient>
<linearGradient id="paint21_linear_523_590" x1="747.682" y1="195.478" x2="781.621" y2="419.541" gradientUnits="userSpaceOnUse">
<stop stop-color="#5356E0"/>
<stop offset="1" stop-color="#6868AE"/>
</linearGradient>
<linearGradient id="paint22_linear_523_590" x1="740.343" y1="205.981" x2="798.264" y2="429.134" gradientUnits="userSpaceOnUse">
<stop stop-color="#5356E0"/>
<stop offset="1" stop-color="#6868AE"/>
</linearGradient>
<linearGradient id="paint23_linear_523_590" x1="735.751" y1="218.703" x2="821.117" y2="440.846" gradientUnits="userSpaceOnUse">
<stop stop-color="#5356E0"/>
<stop offset="1" stop-color="#6868AE"/>
</linearGradient>
<linearGradient id="paint24_linear_523_590" x1="734.388" y1="233.324" x2="852.332" y2="452.567" gradientUnits="userSpaceOnUse">
<stop stop-color="#5356E0"/>
<stop offset="1" stop-color="#6868AE"/>
</linearGradient>
<linearGradient id="paint25_linear_523_590" x1="736.636" y1="249.481" x2="893.685" y2="460.746" gradientUnits="userSpaceOnUse">
<stop stop-color="#5356E0"/>
<stop offset="1" stop-color="#6868AE"/>
</linearGradient>
<linearGradient id="paint26_linear_523_590" x1="742.772" y1="266.788" x2="945.453" y2="459.825" gradientUnits="userSpaceOnUse">
<stop stop-color="#5356E0"/>
<stop offset="1" stop-color="#6868AE"/>
</linearGradient>
<linearGradient id="paint27_linear_523_590" x1="752.956" y1="284.84" x2="1004.05" y2="442.55" gradientUnits="userSpaceOnUse">
<stop stop-color="#5356E0"/>
<stop offset="1" stop-color="#6868AE"/>
</linearGradient>
<linearGradient id="paint28_linear_523_590" x1="767.242" y1="303.226" x2="1059.27" y2="403.371" gradientUnits="userSpaceOnUse">
<stop stop-color="#5356E0"/>
<stop offset="1" stop-color="#6868AE"/>
</linearGradient>
<linearGradient id="paint29_linear_523_590" x1="785.57" y1="321.532" x2="1095.8" y2="345.741" gradientUnits="userSpaceOnUse">
<stop stop-color="#5356E0"/>
<stop offset="1" stop-color="#6868AE"/>
</linearGradient>
<linearGradient id="paint30_linear_523_590" x1="807.775" y1="339.391" x2="1103.96" y2="285.799" gradientUnits="userSpaceOnUse">
<stop stop-color="#5356E0"/>
<stop offset="1" stop-color="#6868AE"/>
</linearGradient>
<linearGradient id="paint31_linear_523_590" x1="833.6" y1="356.435" x2="1089.64" y2="241.971" gradientUnits="userSpaceOnUse">
<stop stop-color="#5356E0"/>
<stop offset="1" stop-color="#6868AE"/>
</linearGradient>
<linearGradient id="paint32_linear_523_590" x1="862.695" y1="372.335" x2="1068.27" y2="221.251" gradientUnits="userSpaceOnUse">
<stop stop-color="#5356E0"/>
<stop offset="1" stop-color="#6868AE"/>
</linearGradient>
<linearGradient id="paint33_linear_523_590" x1="894.641" y1="386.811" x2="1052.14" y2="219.221" gradientUnits="userSpaceOnUse">
<stop stop-color="#5356E0"/>
<stop offset="1" stop-color="#6868AE"/>
</linearGradient>
<linearGradient id="paint34_linear_523_590" x1="928.958" y1="399.629" x2="1046.06" y2="228.038" gradientUnits="userSpaceOnUse">
<stop stop-color="#5356E0"/>
<stop offset="1" stop-color="#6868AE"/>
</linearGradient>
<linearGradient id="paint35_linear_523_590" x1="910.555" y1="417.099" x2="995.411" y2="247.884" gradientUnits="userSpaceOnUse">
<stop stop-color="#5356E0"/>
<stop offset="1" stop-color="#6868AE"/>
</linearGradient>
<linearGradient id="paint36_linear_523_590" x1="948.011" y1="426.121" x2="1007.34" y2="261.89" gradientUnits="userSpaceOnUse">
<stop stop-color="#5356E0"/>
<stop offset="1" stop-color="#6868AE"/>
</linearGradient>
<linearGradient id="paint37_linear_523_590" x1="986.194" y1="433.121" x2="1024.95" y2="274.457" gradientUnits="userSpaceOnUse">
<stop stop-color="#5356E0"/>
<stop offset="1" stop-color="#6868AE"/>
</linearGradient>
<linearGradient id="paint38_linear_523_590" x1="1024.54" y1="438.103" x2="1046.11" y2="284.598" gradientUnits="userSpaceOnUse">
<stop stop-color="#5356E0"/>
<stop offset="1" stop-color="#6868AE"/>
</linearGradient>
<linearGradient id="paint39_linear_523_590" x1="1062.52" y1="441.094" x2="1068.99" y2="291.919" gradientUnits="userSpaceOnUse">
<stop stop-color="#5356E0"/>
<stop offset="1" stop-color="#6868AE"/>
</linearGradient>
<linearGradient id="paint40_linear_523_590" x1="1099.61" y1="442.206" x2="1091.98" y2="296.426" gradientUnits="userSpaceOnUse">
<stop stop-color="#5356E0"/>
<stop offset="1" stop-color="#6868AE"/>
</linearGradient>
<linearGradient id="paint41_linear_523_590" x1="1189.92" y1="435.1" x2="1168.23" y2="291.891" gradientUnits="userSpaceOnUse">
<stop stop-color="#5356E0"/>
<stop offset="1" stop-color="#6868AE"/>
</linearGradient>
<linearGradient id="paint42_linear_523_590" x1="1223.93" y1="432.944" x2="1187.29" y2="291.796" gradientUnits="userSpaceOnUse">
<stop stop-color="#5356E0"/>
<stop offset="1" stop-color="#6868AE"/>
</linearGradient>
<linearGradient id="paint43_linear_523_590" x1="1255.85" y1="429.473" x2="1202.44" y2="290.491" gradientUnits="userSpaceOnUse">
<stop stop-color="#5356E0"/>
<stop offset="1" stop-color="#6868AE"/>
</linearGradient>
<linearGradient id="paint44_linear_523_590" x1="1285.43" y1="424.938" x2="1212.48" y2="289.337" gradientUnits="userSpaceOnUse">
<stop stop-color="#5356E0"/>
<stop offset="1" stop-color="#6868AE"/>
</linearGradient>
<linearGradient id="paint45_linear_523_590" x1="1312.48" y1="419.608" x2="1216.51" y2="290.508" gradientUnits="userSpaceOnUse">
<stop stop-color="#5356E0"/>
<stop offset="1" stop-color="#6868AE"/>
</linearGradient>
<linearGradient id="paint46_linear_523_590" x1="1336.91" y1="413.762" x2="1214.62" y2="297.29" gradientUnits="userSpaceOnUse">
<stop stop-color="#5356E0"/>
<stop offset="1" stop-color="#6868AE"/>
</linearGradient>
<linearGradient id="paint47_linear_523_590" x1="1358.7" y1="407.678" x2="1209.21" y2="313.787" gradientUnits="userSpaceOnUse">
<stop stop-color="#5356E0"/>
<stop offset="1" stop-color="#6868AE"/>
</linearGradient>
<linearGradient id="paint48_linear_523_590" x1="1378.19" y1="401.709" x2="1206.49" y2="342.825" gradientUnits="userSpaceOnUse">
<stop stop-color="#5356E0"/>
<stop offset="1" stop-color="#6868AE"/>
</linearGradient>
<linearGradient id="paint49_linear_523_590" x1="1395.49" y1="396.072" x2="1215.22" y2="382.005" gradientUnits="userSpaceOnUse">
<stop stop-color="#5356E0"/>
<stop offset="1" stop-color="#6868AE"/>
</linearGradient>
</defs>
</svg>
