<svg width="1527" height="592" viewBox="0 0 1527 592" fill="none" xmlns="http://www.w3.org/2000/svg">
<path d="M470.296 8.51718C502.13 8.51718 533.64 16.4816 562.926 31.937C592.213 47.3929 618.671 70.022 640.698 98.4678C662.726 126.914 679.864 160.584 691.071 197.449C702.279 234.313 707.322 273.603 705.895 312.946C704.468 352.288 696.6 390.863 682.77 426.34C668.939 461.817 649.434 493.456 625.439 519.353C601.444 545.249 573.458 564.863 543.175 577.022C512.892 589.181 480.934 593.635 449.227 590.121" stroke="url(#paint0_linear_394_52)" stroke-width="1.42816"/>
<path d="M397.775 8.51694C439.436 8.51694 480.664 16.4945 518.971 31.9673C557.278 47.4401 591.868 70.0867 620.655 98.5382C649.441 126.99 671.827 160.656 686.464 197.504C701.101 234.353 707.686 273.62 705.822 312.938C703.959 352.255 693.686 390.81 675.621 426.275C657.557 461.74 632.075 493.381 600.711 519.287C569.347 545.194 532.753 564.828 493.135 577.002C453.516 589.176 411.698 593.639 370.204 590.119" stroke="url(#paint1_linear_394_52)" stroke-width="1.42816"/>
<path d="M353.423 8.51718C401.088 8.51718 448.256 16.499 492.079 31.9788C535.903 47.4586 575.47 70.1136 608.394 98.5709C641.317 127.028 666.914 160.695 683.648 197.536C700.382 234.377 707.909 273.631 705.779 312.933C703.649 352.235 691.906 390.779 671.252 426.24C650.597 461.701 621.457 493.346 585.583 519.259C549.709 545.173 507.847 564.815 462.522 576.995C417.196 589.175 369.353 593.64 321.879 590.118" stroke="url(#paint2_linear_394_52)" stroke-width="1.42816"/>
<path d="M660.927 8.51694C663.802 8.51694 666.797 10.3156 669.856 14.1818C672.905 18.0367 675.925 23.8352 678.851 31.5583C684.702 46.9974 690 69.639 694.414 98.1397C698.827 126.632 702.26 160.358 704.505 197.284C706.751 234.209 707.761 273.562 707.475 312.966C707.189 352.371 705.613 391.007 702.842 426.543C700.072 462.08 696.164 493.772 691.358 519.708C686.549 545.659 680.948 565.257 674.916 577.366C671.896 583.43 668.838 587.47 665.826 589.57C664.33 590.613 662.862 591.165 661.423 591.268C659.988 591.371 658.53 591.03 657.043 590.206" stroke="url(#paint3_linear_394_52)" stroke-width="1.42816"/>
<path d="M576.048 8.51694C593.487 8.51694 610.805 16.4053 626.958 31.8218C643.115 47.2423 657.739 69.8492 669.926 98.3114C682.111 126.769 691.594 160.462 697.797 197.359C703.999 234.255 706.79 273.579 706.001 312.957C705.211 352.335 700.857 390.942 693.203 426.448C685.549 461.956 674.757 493.612 661.487 519.512C648.214 545.418 632.756 564.992 616.073 577.107C599.403 589.211 581.866 593.612 564.494 590.13" stroke="url(#paint4_linear_394_52)" stroke-width="1.42816"/>
<path d="M839.035 8.51694C821.595 8.51694 804.277 16.4053 788.125 31.8218C771.968 47.2423 757.344 69.8492 745.157 98.3114C732.972 126.769 723.488 160.462 717.286 197.359C711.083 234.255 708.292 273.579 709.082 312.957C709.872 352.335 714.226 390.942 721.88 426.448C729.534 461.956 740.326 493.612 753.596 519.512C766.868 545.418 782.326 564.992 799.01 577.107C815.679 589.211 833.216 593.612 850.588 590.13" stroke="url(#paint5_linear_394_52)" stroke-width="1.42816"/>
<path d="M755.547 8.51694C752.671 8.51694 749.676 10.3156 746.618 14.1818C743.568 18.0367 740.549 23.8352 737.622 31.5583C731.771 46.9974 726.473 69.639 722.059 98.1397C717.646 126.632 714.213 160.358 711.968 197.284C709.723 234.209 708.712 273.562 708.998 312.966C709.284 352.371 710.86 391.007 713.631 426.543C716.402 462.08 720.309 493.772 725.115 519.708C729.925 545.659 735.525 565.257 741.557 577.366C744.577 583.43 747.635 587.47 750.647 589.57C752.144 590.613 753.611 591.165 755.05 591.268C756.485 591.371 757.943 591.03 759.43 590.206" stroke="url(#paint6_linear_394_52)" stroke-width="1.42816"/>
<path d="M943.395 8.51694C911.56 8.51694 880.05 16.4813 850.765 31.9368C821.478 47.3927 795.02 70.0217 772.993 98.4676C750.965 126.914 733.827 160.584 722.62 197.448C711.412 234.313 706.369 273.603 707.796 312.945C709.223 352.288 717.091 390.862 730.921 426.339C744.752 461.817 764.256 493.456 788.252 519.353C812.247 545.249 840.233 564.863 870.516 577.022C900.799 589.181 932.756 593.635 964.464 590.12" stroke="url(#paint7_linear_394_52)" stroke-width="1.42816"/>
<path d="M992.152 0.714202C953.249 0.714202 914.748 8.68913 878.974 24.1579C843.2 39.6267 810.895 62.2688 784.007 90.7181C757.119 119.167 736.207 152.834 722.533 189.686C708.859 226.539 702.706 265.812 704.447 305.137C706.188 344.462 715.786 383.021 732.662 418.489C749.538 453.957 773.341 485.597 802.635 511.5C831.928 537.403 866.105 557.032 903.103 569.204C940.1 581.375 979.151 585.835 1017.9 582.316" stroke="url(#paint8_linear_394_52)" stroke-width="1.42816"/>
<path d="M1115.02 0.714202C1059.49 0.714202 1004.54 8.69962 953.481 24.1858C902.424 39.6722 856.331 62.3359 817.979 90.801C779.626 119.266 749.817 152.937 730.333 189.772C710.85 226.605 702.09 265.843 704.569 305.124C707.048 344.405 720.716 382.937 744.768 418.395C768.82 453.855 802.759 485.506 844.55 511.428C886.341 537.35 935.111 557 987.917 569.186C1040.72 581.372 1096.46 585.838 1151.77 582.315" stroke="url(#paint9_linear_394_52)" stroke-width="1.42816"/>
<defs>
<linearGradient id="paint0_linear_394_52" x1="470.296" y1="592" x2="470.296" y2="7.8031" gradientUnits="userSpaceOnUse">
<stop stop-color="#5356E0"/>
<stop offset="1" stop-color="#6868AE"/>
</linearGradient>
<linearGradient id="paint1_linear_394_52" x1="397.775" y1="592" x2="397.775" y2="7.80286" gradientUnits="userSpaceOnUse">
<stop stop-color="#5356E0"/>
<stop offset="1" stop-color="#6868AE"/>
</linearGradient>
<linearGradient id="paint2_linear_394_52" x1="353.423" y1="592" x2="353.423" y2="7.8031" gradientUnits="userSpaceOnUse">
<stop stop-color="#5356E0"/>
<stop offset="1" stop-color="#6868AE"/>
</linearGradient>
<linearGradient id="paint3_linear_394_52" x1="660.927" y1="592" x2="660.927" y2="7.80286" gradientUnits="userSpaceOnUse">
<stop stop-color="#5356E0"/>
<stop offset="1" stop-color="#6868AE"/>
</linearGradient>
<linearGradient id="paint4_linear_394_52" x1="576.048" y1="592" x2="576.048" y2="7.80286" gradientUnits="userSpaceOnUse">
<stop stop-color="#5356E0"/>
<stop offset="1" stop-color="#6868AE"/>
</linearGradient>
<linearGradient id="paint5_linear_394_52" x1="839.035" y1="592" x2="839.035" y2="7.80286" gradientUnits="userSpaceOnUse">
<stop stop-color="#5356E0"/>
<stop offset="1" stop-color="#6868AE"/>
</linearGradient>
<linearGradient id="paint6_linear_394_52" x1="755.547" y1="592" x2="755.547" y2="7.80286" gradientUnits="userSpaceOnUse">
<stop stop-color="#5356E0"/>
<stop offset="1" stop-color="#6868AE"/>
</linearGradient>
<linearGradient id="paint7_linear_394_52" x1="943.395" y1="592" x2="943.395" y2="7.80286" gradientUnits="userSpaceOnUse">
<stop stop-color="#5356E0"/>
<stop offset="1" stop-color="#6868AE"/>
</linearGradient>
<linearGradient id="paint8_linear_394_52" x1="992.152" y1="584.197" x2="992.152" y2="0.00012207" gradientUnits="userSpaceOnUse">
<stop stop-color="#5356E0"/>
<stop offset="1" stop-color="#6868AE"/>
</linearGradient>
<linearGradient id="paint9_linear_394_52" x1="1115.02" y1="584.197" x2="1115.02" y2="0.00012207" gradientUnits="userSpaceOnUse">
<stop stop-color="#5356E0"/>
<stop offset="1" stop-color="#6868AE"/>
</linearGradient>
</defs>
</svg>
